<?xml version="1.0" encoding="UTF-8" standalone="no"?>
<!-- Created with Inkscape (http://www.inkscape.org/) -->

<svg
   xmlns:dc="http://purl.org/dc/elements/1.1/"
   xmlns:cc="http://creativecommons.org/ns#"
   xmlns:rdf="http://www.w3.org/1999/02/22-rdf-syntax-ns#"
   xmlns:svg="http://www.w3.org/2000/svg"
   xmlns="http://www.w3.org/2000/svg"
   xmlns:sodipodi="http://sodipodi.sourceforge.net/DTD/sodipodi-0.dtd"
   xmlns:inkscape="http://www.inkscape.org/namespaces/inkscape"
   width="451.65384"
   height="452.81821"
   viewBox="0 0 451.65384 452.81821"
   version="1.1"
   id="svg2216"
   inkscape:version="0.92.3 (2405546, 2018-03-11)"
   sodipodi:docname="monogram4.svg">
  <defs
     id="defs2210" />
  <sodipodi:namedview
     id="base"
     pagecolor="#ffffff"
     bordercolor="#666666"
     borderopacity="1.0"
     inkscape:pageopacity="0.0"
     inkscape:pageshadow="2"
     inkscape:zoom="1.4"
     inkscape:cx="236.8451"
     inkscape:cy="200.26989"
     inkscape:document-units="px"
     inkscape:current-layer="layer1"
     showgrid="false"
     units="px"
     inkscape:window-width="1280"
     inkscape:window-height="737"
     inkscape:window-x="-8"
     inkscape:window-y="-8"
     inkscape:window-maximized="1"
     fit-margin-top="10"
     fit-margin-left="10"
     fit-margin-bottom="10"
     fit-margin-right="10"
     inkscape:showpageshadow="false"
     scale-x="1" />
  <metadata
     id="metadata2213">
    <rdf:RDF>
      <cc:Work
         rdf:about="">
        <dc:format>image/svg+xml</dc:format>
        <dc:type
           rdf:resource="http://purl.org/dc/dcmitype/StillImage" />
        <dc:title></dc:title>
      </cc:Work>
    </rdf:RDF>
  </metadata>
  <g
     inkscape:label="Layer 1"
     inkscape:groupmode="layer"
     id="layer1"
     transform="translate(327.3894,-74.038643)">


<g
       aria-label="B"
       transform="scale(0.78656028,1.2713584)"
       style="font-style:normal;font-variant:normal;font-weight:normal;font-stretch:normal;font-size:51.37263489px;line-height:1.25;font-family:'Open Sans';-inkscape-font-specification:'Open Sans, Normal';font-variant-ligatures:normal;font-variant-caps:normal;font-variant-numeric:normal;font-feature-settings:normal;text-align:start;letter-spacing:0px;word-spacing:0px;writing-mode:lr-tb;text-anchor:start;fill:#000000;fill-opacity:1;stroke:none;stroke-width:1.37605298"
       id="text834">
      <path
         d="m -285.97802,275.81258 9.99789,-2.77361 v -76.37092 l -9.73988,-1.41906 v -10.5784 h 20.12477 q -0.1935,-0.12901 1.74157,-0.19351 1.99958,-0.129 5.2247,-0.19351 3.22512,-0.129 7.28878,-0.258 4.12816,-0.12901 8.25632,-0.25801 8.90134,-0.25801 15.6741,1.35455 6.77276,1.54806 11.28793,4.70868 4.57967,3.09612 6.83726,7.67579 2.32209,4.51517 2.32209,10.12689 0,3.93465 -1.03204,7.61129 -1.03204,3.67664 -3.16062,6.77276 -2.06408,3.03162 -5.2247,5.35371 -3.16062,2.25758 -7.48229,3.41863 4.77319,0 9.03035,1.93507 4.32166,1.87057 7.54679,5.1602 3.28962,3.28962 5.2247,7.67579 1.93507,4.38617 1.93507,9.35286 0,7.48229 -2.45109,13.22301 -2.38659,5.67621 -7.8048,9.54636 -5.41821,3.87015 -14.19054,5.86973 -8.70784,1.99957 -21.35032,1.99957 -2.90261,0 -5.61172,-0.129 -2.7091,-0.0645 -5.67621,-0.25801 -2.90262,-0.12901 -6.38575,-0.25801 -3.41863,-0.0645 -7.8048,-0.0645 h -14.57756 z m 32.83176,-47.86083 q 1.03204,0.32251 2.96711,0.45151 1.93508,0.0645 5.41821,0.0645 3.93465,0 6.57925,-0.90304 2.70911,-0.96753 4.45067,-2.51559 1.80607,-1.54806 2.77361,-3.54764 0.96754,-2.06408 1.35455,-4.19266 0.45152,-2.12858 0.51602,-4.19266 0.12901,-2.12858 0.12901,-3.87015 0,-3.09612 -0.77403,-5.93423 -0.70953,-2.8381 -2.6446,-4.96669 -1.93508,-2.19308 -5.28921,-3.41863 -3.35412,-1.29005 -8.51432,-1.29005 -0.70953,0 -1.67707,0.0645 -0.96753,0.0645 -1.93507,0.1935 -0.96754,0.0645 -1.87057,0.25801 -0.83853,0.19351 -1.35455,0.45152 z m -0.129,46.31277 q 1.61256,0.83853 5.16019,1.29005 3.61214,0.45152 8.06281,0.45152 4.77319,0 7.8693,-1.93508 3.09612,-1.99957 4.83769,-4.96669 1.80607,-3.03161 2.45109,-6.51475 0.70953,-3.54763 0.70953,-6.64375 0,-3.35413 -0.77403,-6.51475 -0.70953,-3.22512 -2.6446,-5.74072 -1.87057,-2.5156 -5.0957,-3.99915 -3.22512,-1.54806 -8.25631,-1.54806 -2.90261,0 -6.06323,0.0645 -3.09612,0.0645 -6.25674,0.70953 z"
         style="font-style:normal;font-variant:normal;font-weight:900;font-stretch:normal;font-size:132.10105896px;font-family:Merriweather;-inkscape-font-specification:'Merriweather Heavy';fill:#000000;fill-opacity:1;stroke-width:1.37605298"
         id="path824" />
    </g>



<g
       aria-label="L"
       transform="scale(0.84226545,1.1872742)"
       style="font-style:normal;font-variant:normal;font-weight:normal;font-stretch:normal;font-size:72.27713776px;line-height:1.25;font-family:'Open Sans';-inkscape-font-specification:'Open Sans, Normal';font-variant-ligatures:normal;font-variant-caps:normal;font-variant-numeric:normal;font-feature-settings:normal;text-align:start;letter-spacing:0px;word-spacing:0px;writing-mode:lr-tb;text-anchor:start;fill:#000000;fill-opacity:1;stroke:none;stroke-width:1.93599498"
       id="text841">
      <path
         d="m -172.72182,309.05669 12.88647,-3.44849 V 199.52172 l -12.43272,-1.90575 v -16.78871 h 61.52835 v 16.78871 l -16.51646,1.9965 v 107.35698 l 32.669916,-3.53925 15.155212,-21.50769 13.793965,5.08199 -6.261734,34.75716 H -172.72182 Z"
         style="font-style:normal;font-variant:normal;font-weight:900;font-stretch:normal;font-size:185.85552979px;font-family:Merriweather;-inkscape-font-specification:'Merriweather Heavy';fill:#000000;fill-opacity:1;stroke-width:1.93599498"
         id="path836" />
    </g>



<g
       aria-label="S"
       transform="scale(0.84322527,1.1859227)"
       style="font-style:normal;font-variant:normal;font-weight:normal;font-stretch:normal;font-size:54.91915131px;line-height:1.25;font-family:'Open Sans';-inkscape-font-specification:'Open Sans, Normal';font-variant-ligatures:normal;font-variant-caps:normal;font-variant-numeric:normal;font-feature-settings:normal;text-align:start;letter-spacing:0px;word-spacing:0px;writing-mode:lr-tb;text-anchor:start;fill:#000000;fill-opacity:1;stroke:none;stroke-width:1.47104895"
       id="text838">
      <path
         d="m -49.697014,272.84698 h 10.343312 l 6.412854,16.61826 q 1.861796,2.41344 4.068369,3.8615 2.275529,1.37911 4.757924,2.13762 2.55135,0.68955 5.240611,0.89642 2.689261,0.13791 5.378522,0.13791 2.689262,0 5.585389,-0.68955 2.8961273,-0.75851 5.2406114,-2.4824 2.41343951,-1.79284 3.9304586,-4.68897 1.5859745,-2.96508 1.5859745,-7.44718 0,-3.51673 -2.13761779,-6.41285 -2.13761781,-2.89613 -5.65434391,-5.51644 -3.5167262,-2.6203 -8.0677838,-5.03374 -4.482102,-2.41344 -9.240025,-5.03375 -5.171656,-2.75821 -10.205401,-5.93016 -4.96479,-3.17195 -8.895249,-7.03346 -3.930458,-3.93045 -6.343898,-8.75733 -2.413439,-4.82688 -2.413439,-10.96391 0,-7.10241 3.171949,-12.54989 3.171949,-5.51643 8.343605,-9.24003 5.171656,-3.72359 11.791376,-5.65434 6.688675,-1.93075 13.722127,-1.93075 5.6543439,0 11.170777,0.55164 5.5164331,0.48269 10.0674904,1.2412 4.6200126,0.75851 7.7919616,1.65493 3.240905,0.82746 4.344191,1.51702 v 22.82424 H 8.9840434 L 2.5022345,210.44233 q -0.3447771,-0.41373 -1.65492996,-0.96537 -1.24119745,-0.55165 -3.10299364,-1.03433 -1.8617962,-0.55165 -4.0683694,-0.89642 -2.2065733,-0.34478 -4.3441915,-0.34478 -2.758216,0 -5.654344,0.55164 -2.827172,0.55165 -5.171656,1.8618 -2.275528,1.2412 -3.792547,3.44777 -1.448064,2.13762 -1.517019,5.44748 0,3.8615 1.585974,7.03345 1.65493,3.17195 4.413147,5.86121 2.758216,2.68926 6.412853,5.03374 3.654637,2.34449 7.7230064,4.62002 3.8615032,2.13762 7.8609172,4.27523 4.0683694,2.13762 7.8609172,4.55106 3.7925482,2.34448 7.1024072,5.03375 3.378816,2.6203 5.861211,5.86121 2.482395,3.17195 3.930458,6.96449 1.448064,3.79255 1.448064,8.41256 0,6.61972 -2.827172,12.27407 -2.827172,5.65434 -8.136739,9.79167 -5.240611,4.13732 -12.8946623,6.55076 -7.5850956,2.34448 -17.1698977,2.34448 -4.826879,0 -10.067491,-0.48268 -5.240611,-0.48269 -10.136446,-1.31016 -4.895834,-0.82746 -9.102114,-1.9997 -4.137325,-1.17225 -6.757631,-2.55135 z"
         style="font-style:normal;font-variant:normal;font-weight:900;font-stretch:normal;font-size:141.22068787px;font-family:Merriweather;-inkscape-font-specification:'Merriweather Heavy';fill:#000000;fill-opacity:1;stroke-width:1.47104895"
         id="path833" />
    </g>




    <path
       inkscape:connector-curvature="0"
       id="path830"
       d="m -92.742864,516.31172 c -2.146318,-2.25744 -6.98461,-5.17788 -13.376916,-8.0744 -4.2317,-1.91743 -5.57298,-2.63353 -7.92803,-4.23288 -2.61371,-1.7749 -4.78899,-4.32869 -5.72571,-6.72204 -0.46421,-1.18605 -0.68498,-3.38097 -0.44403,-4.41437 0.17745,-0.76082 0.22609,-0.79363 1.08433,-0.7304 1.85777,0.1372 5.99335,1.02097 8.40959,1.79774 4.71501,1.51574 8.59808,3.78308 11.620372,6.78493 2.917814,2.89814 5.016602,6.41268 6.135748,10.2746 0.631106,2.17781 1.095632,4.80885 0.980962,5.55602 -0.0687,0.44822 -0.11743,0.43276 -0.756316,-0.23924 z m -32.334146,-3.83173 c -2.49767,-2.3746 -5.8271,-4.26939 -15.42792,-8.77991 -7.39464,-3.47403 -11.30151,-7.84536 -11.30151,-12.64498 0,-2.32173 0.0554,-2.35389 3.13776,-1.82215 8.28549,1.42923 14.04349,4.14879 18.38064,8.68124 2.75011,2.87399 4.49386,5.78823 5.62865,9.40679 0.8216,2.61993 1.49686,6.4964 1.12858,6.47886 -0.0915,-0.004 -0.78728,-0.59826 -1.5462,-1.31985 z m 67.72678,-1.3296 c -1.39449,-0.98211 -3.74494,-2.07802 -6.40653,-2.98722 -2.54888,-0.87065 -4.07525,-1.28232 -10.76505,-2.90302 -1.87079,-0.45324 -4.17529,-1.12887 -5.12112,-1.50153 -3.53528,-1.39264 -6.50724,-3.5797 -7.95386,-5.85324 -0.80069,-1.25847 -1.44793,-3.37353 -1.34847,-4.40666 l 0.0716,-0.74453 2.38985,-0.16857 c 2.67687,-0.18898 7.5983,0.11943 10.08417,0.63164 8.36163,1.72346 14.55819,6.31868 18.15925,13.46626 0.80804,1.60388 1.94816,4.78141 1.77441,4.94532 -0.0483,0.0457 -0.44619,-0.16932 -0.88433,-0.47829 z m -101.85396,-4.80438 c -1.64363,-2.61007 -6.0478,-6.58753 -12.17221,-10.99306 -6.70442,-4.82275 -10.03226,-9.17484 -10.40373,-13.60565 -0.14063,-1.67751 0.38079,-4.05415 0.93629,-4.26732 0.4171,-0.16025 4.32823,1.32669 6.96929,2.64926 8.64494,4.32915 13.84096,10.68575 15.36707,18.79941 0.40198,2.13729 0.5222,7.94789 0.17166,8.29837 -0.10579,0.10583 -0.49657,-0.29027 -0.86836,-0.88101 z m 135.75014,-5.73441 c -2.40678,-1.27238 -9.73741,-2.27233 -16.71197,-2.2797 -7.97741,-0.008 -13.9733,-2.12398 -16.40678,-5.7891 -0.89606,-1.34963 -1.57683,-3.29091 -1.26381,-3.60389 0.30305,-0.30312 4.16418,-1.24324 6.83663,-1.66466 3.61889,-0.57067 9.60837,-0.36283 12.6548,0.43895 5.52499,1.45437 10.23636,4.67112 13.71707,9.3656 1.06997,1.44306 2.45573,3.99001 2.1617,3.97296 -0.0956,-0.004 -0.54014,-0.20371 -0.98764,-0.44016 z m -168.63872,-5.52439 c -4.5e-4,-0.57441 -1.39583,-3.21044 -2.73325,-5.16317 -1.59061,-2.32229 -3.42576,-4.53301 -6.81431,-8.20864 -3.06358,-3.32327 -4.01946,-4.49443 -5.34704,-6.55166 -2.51689,-3.90029 -3.3965,-7.69387 -2.49534,-10.76198 0.41312,-1.40648 1.14587,-2.71563 1.51996,-2.71563 0.13898,0 0.97562,0.42675 1.85918,0.94829 6.31689,3.7291 11.50695,9.18349 13.78883,14.49104 2.30153,5.35325 2.66002,11.66117 0.96909,17.05134 -0.34507,1.10003 -0.7467,1.58937 -0.74712,0.91041 z m 98.008384,-5.47101 c -0.0772,-0.41156 -0.0276,-1.35889 0.10995,-2.10539 0.941826,-5.10595 5.449876,-8.67545 15.229266,-12.05843 6.71664,-2.32354 11.08848,-4.42227 13.7824,-6.61652 0.68174,-0.55532 1.23883,-0.8804 1.23796,-0.72249 -0.004,0.79094 -0.99982,4.28818 -1.70646,5.99524 -3.27928,7.92189 -9.86955,13.13098 -19.23164,15.20118 -2.57661,0.56976 -6.395312,1.05456 -8.30636,1.05456 -0.921816,0 -0.982406,-0.0423 -1.115136,-0.74815 z m -27.730964,-0.51111 c -1.21829,-0.16592 -2.33037,-0.37342 -2.47127,-0.46038 -0.62792,-0.3882 0.5031,-3.64649 1.86068,-5.36062 0.91029,-1.14928 3.16161,-2.75395 5.09126,-3.62895 2.30224,-1.04387 5.22277,-1.74202 10.48033,-2.5053 8.426918,-1.22339 13.41847,-2.54116 15.660928,-4.13435 0.35146,-0.24945 0.694236,-0.39885 0.761726,-0.33071 0.21744,0.2177 -1.900828,4.41872 -3.109544,6.16721 -1.522868,2.2029 -4.660232,5.20996 -6.87097,6.58556 -3.10533,1.93221 -6.74115,3.2092 -10.76664,3.78146 -2.19751,0.31219 -7.96434,0.25058 -10.6365,-0.11377 z m 58.08276,-2.52461 c -0.16335,-0.49497 -0.2324,-1.58468 -0.17268,-2.72326 0.0873,-1.66273 0.21649,-2.13177 1.04232,-3.78384 1.78465,-3.57025 4.32896,-5.85664 11.10557,-9.97984 2.49455,-1.51778 5.54941,-3.48257 6.78849,-4.36611 2.18551,-1.55841 5.23338,-4.35666 6.26114,-5.7484 l 0.50428,-0.68273 -0.10885,2.95888 c -0.39425,10.715 -7.04962,19.0944 -18.58268,23.39637 -2.11312,0.78818 -5.53935,1.75396 -6.22253,1.75396 -0.19215,0 -0.46239,-0.36245 -0.61504,-0.82503 z m 43.93723,-0.18293 c -2.80774,-0.59138 -5.13572,-1.79985 -6.46996,-3.35864 -0.91065,-1.06382 -1.58018,-2.36961 -1.42396,-2.77682 0.26876,-0.70031 6.25886,-3.17223 9.9314,-4.09829 7.9176597,-1.99665 15.0174867,-0.92549 21.2490656,3.2058 1.66397,1.10313 5.8469797,5.07239 5.8469797,5.54819 0,0.16895 -0.2140397,0.2075 -0.6101697,0.1081 -3.39555,-0.85229 -8.77686982,-0.55714 -17.0292465,0.93395 -3.9232991,0.70889 -9.2447491,0.91159 -11.4941091,0.43782 z m -133.60431,-0.46926 c -1.18924,-0.17537 -2.25176,-0.32429 -2.36114,-0.33071 -0.36219,-0.0189 0.003,-2.3833 0.54899,-3.54055 0.802,-1.70226 3.16887,-3.93887 5.34003,-5.04609 3.0045,-1.53218 5.80449,-2.30199 10.59878,-2.91397 7.12585,-0.90966 12.40511,-2.16439 15.37245,-3.6536 1.20289,-0.60374 1.91044,-0.85107 1.91044,-0.6678 0,0.16025 -0.51842,1.32657 -1.15205,2.59222 -3.54052,7.07233 -9.32945,11.51169 -17.39779,13.34193 -2.25172,0.51076 -9.98444,0.64244 -12.85971,0.21883 z m 119.59288,-6.59184 c -0.98137,-1.49775 -1.28566,-4.41982 -0.69231,-6.64826 1.05929,-3.97849 3.31303,-6.93967 9.72759,-12.78074 5.28042,-4.80843 7.96652,-7.87884 9.66601,-11.04922 0.39322,-0.73353 0.7768,-1.2336 0.85242,-1.11122 0.46573,0.75356 0.87452,4.69398 0.76139,7.33844 -0.42788,9.99523 -6.23459,17.92347 -17.25703,23.56158 -1.34129,0.68606 -2.49582,1.24747 -2.56558,1.24747 -0.0697,0 -0.29137,-0.25059 -0.49249,-0.55805 z m -189.61675,-3.07227 c -0.82845,-3.4134 -3.07104,-7.9754 -6.8788,-13.99313 -4.61448,-7.29256 -6.01452,-12.89159 -4.29072,-17.15932 0.64006,-1.58456 1.71733,-2.99977 2.28352,-2.99977 0.53122,0 4.56887,3.9134 6.45781,6.25912 5.79244,7.19309 7.78853,15.08077 5.8408,23.08014 -0.42563,1.74811 -1.96583,5.59828 -2.53207,6.32965 -0.38318,0.49493 -0.39894,0.46764 -0.88054,-1.51669 z m 50.79121,-0.0113 c -4.27558,-0.45188 -11.55646,-2.48928 -11.87654,-3.32342 -0.20783,-0.54168 1.09262,-2.87467 2.20899,-3.96291 2.97148,-2.89659 7.74477,-4.09837 14.78867,-3.72313 2.06553,0.10998 6.21363,0.19804 9.21802,0.19577 4.48739,-0.003 5.78758,-0.0794 7.28338,-0.42387 1.00146,-0.23055 2.00886,-0.51885 2.23865,-0.6401 2.09401,-1.10487 -2.46023,4.61545 -5.59737,7.03056 -1.68388,1.29623 -4.67245,2.88378 -6.7752,3.59902 -3.32044,1.12936 -7.90285,1.6272 -11.4886,1.24819 z M 6.1754856,470.90141 c -0.67538,-0.18974 -1.72771,-0.61648 -2.33839,-0.94893 -1.23996,-0.67476 -3.22969001,-2.66687 -3.09068001,-3.09434 0.14952,-0.45978 3.29687001,-2.77912 5.77196001,-4.25355 4.9508604,-2.94917 9.2808024,-4.30704 14.3138944,-4.48887 2.68189,-0.0971 3.56037,-0.0393 5.5477,0.37266 2.69927,0.55797 5.57411,1.65294 7.77916,2.96296 1.64916,0.97973 3.85792,2.64998 3.85628,2.91598 0,0.0915 -0.80999,0.18142 -1.79867,0.20145 -3.2524,0.065 -7.18352,1.09296 -14.24,3.72215 -2.691951,1.00298 -5.740652,2.036 -6.775002,2.29561 -2.523351,0.63334 -7.2970021,0.79975 -9.0262524,0.31446 z m -11.6995377,-3.92833 c -0.2013297,-0.22224 -0.6476797,-1.01624 -0.9918594,-1.76394 -0.8825197,-1.91747 -1.0091397,-4.76678 -0.32281,-7.26826 0.9460097,-3.44822 2.4285491,-6.1033 6.18736727,-11.08097 4.18627983,-5.54381 6.78480983,-9.93532 7.84126983,-13.25148 l 0.51718,-1.62353 0.4623003,1.07225 c 3.5514101,8.23801 2.5031201,17.28642 -2.8794903,24.85436 -2.23938,3.14861 -8.9916683,9.46602 -10.117558,9.46602 -0.1816797,0 -0.4950597,-0.1818 -0.6963597,-0.40434 z M -195.27907,463.14192 c -1.80433,-0.32012 -4.90097,-1.14179 -6.44342,-1.70982 -3.24436,-1.19486 -9.03375,-4.30855 -9.03375,-4.85858 0,-0.42406 1.1749,-1.95791 2.16422,-2.82546 2.18817,-1.91883 5.14169,-2.67012 9.67126,-2.46017 2.91397,0.13493 3.98126,0.34469 10.92506,2.14745 5.41078,1.4047 7.61774,1.74251 11.45717,1.75412 l 3.37717,0.008 -1.52061,1.44064 c -2.93498,2.78063 -6.78319,4.92438 -10.77014,5.99985 -1.36197,0.36737 -2.5746,0.48574 -5.50246,0.53695 -2.06552,0.0397 -4.01155,0.0189 -4.3245,-0.034 z m 92.40569,-2.4367 c -1.26598,-0.62785 -0.46982,-2.5392 0.86254,-2.07057 0.50731,0.17839 0.61902,0.35527 0.61902,0.98109 0,1.01113 -0.66042,1.49677 -1.48156,1.08948 z m -5.55023,-0.22488 c -0.5269,-0.38551 -0.40715,-1.48467 0.20579,-1.88908 1.05225,-0.69415 2.25849,0.91589 1.35961,1.81478 -0.44648,0.44643 -1.0192,0.47361 -1.56537,0.0741 z m 10.294888,-0.26381 c -0.577166,-1.26671 1.165312,-2.3435 1.958888,-1.21054 0.44745,0.63889 0.44667,0.96257 -0.003,1.41259 -0.571276,0.57128 -1.654172,0.45941 -1.955538,-0.20182 z m -15.282208,0.1731 c -0.55732,-0.14438 -0.90757,-1.11103 -0.60645,-1.67369 0.34511,-0.64471 1.28319,-0.80983 1.82347,-0.32088 0.5705,0.51629 0.56722,1.12237 -0.009,1.69875 -0.46758,0.4676 -0.50745,0.47732 -1.20786,0.29594 z m 20.802936,-0.15685 c -0.484996,-0.58435 -0.21468,-1.58233 0.495956,-1.83076 0.52324,-0.18293 0.715406,-0.13569 1.126786,0.27552 0.411336,0.4111 0.458346,0.6036 0.275486,1.1268 -0.166676,0.47693 -0.390776,0.64758 -0.918572,0.69936 -0.41367,0.0423 -0.812806,-0.0695 -0.979656,-0.27099 z m 5.343894,-0.26948 c -0.54188,-0.54191 -0.44289,-1.39684 0.21132,-1.82551 0.52711,-0.34545 0.61091,-0.34545 1.13802,0 0.67652,0.4433 0.74637,1.26932 0.15273,1.8065 -0.52273,0.47305 -1.04153,0.47966 -1.50216,0.0189 z m -32.03192,-0.65714 c -0.57716,-1.26675 1.16533,-2.34354 1.95891,-1.21051 0.44745,0.63881 0.44667,0.96246 -0.003,1.41252 -0.57129,0.57131 -1.65418,0.4594 -1.95555,-0.20183 z m 37.18231,0.059 c -0.38294,-0.38325 -0.33996,-1.22079 0.0846,-1.64531 0.4245,-0.42451 1.26228,-0.46752 1.64528,-0.0847 0.15023,0.15005 0.27314,0.53942 0.27314,0.86487 0,0.32542 -0.12291,0.71471 -0.27314,0.86491 -0.15024,0.15004 -0.53944,0.27288 -0.86491,0.27288 -0.32549,0 -0.71468,-0.12284 -0.8649,-0.27288 z m -41.86115,-0.20334 c -0.73835,-0.27288 -0.92251,-1.26985 -0.3419,-1.85046 0.85485,-0.85481 2.24431,0.0113 1.93197,1.20926 -0.13788,0.52736 -0.97995,0.86691 -1.59007,0.6412 z m 47.18061,-0.56425 c -0.71261,-0.71263 -0.24571,-1.91841 0.74286,-1.91841 0.78797,0 1.17553,0.37531 1.17553,1.13805 0,0.32542 -0.12291,0.71464 -0.27314,0.86487 -0.38295,0.38321 -1.22076,0.34016 -1.64527,-0.0847 z m -52.78537,-0.51379 c -0.71948,-0.79502 -0.22027,-1.91671 0.85306,-1.91671 0.79149,0 1.1032,0.31143 1.1032,1.10321 0,1.09583 -1.23572,1.6097 -1.95626,0.8135 z m 58.02029,-0.39673 c -0.7126,-0.7126 -0.2457,-1.91838 0.74286,-1.91838 0.78797,0 1.17555,0.37493 1.17555,1.13798 0,0.32542 -0.12295,0.71471 -0.27315,0.86494 -0.38294,0.38325 -1.22075,0.34016 -1.64527,-0.0847 z m -63.44146,-0.88479 c -0.34103,-0.74839 0.25765,-1.7164 1.06139,-1.7164 0.80372,0 1.40235,0.96801 1.06138,1.7164 -0.20103,0.44115 -0.42571,0.55963 -1.06138,0.55963 -0.63568,0 -0.86036,-0.1183 -1.06139,-0.55963 z m 68.59186,-0.16819 c -0.64369,-0.64362 -0.0568,-2.00289 0.8649,-2.00289 0.92165,0 1.50859,1.35927 0.8649,2.00289 -0.15023,0.15005 -0.53942,0.27288 -0.8649,0.27288 -0.32549,0 -0.71468,-0.12283 -0.8649,-0.27288 z m -184.63348,-2.01346 c 0,-3.23588 -1.08175,-7.42307 -3.76088,-14.55715 -1.93644,-5.15645 -2.5313,-7.27722 -2.85653,-10.18379 -0.38946,-3.48068 0.19294,-6.36465 1.74239,-8.62806 0.70304,-1.02704 2.20834,-2.35547 2.66906,-2.35547 0.0877,0 0.77652,0.83229 1.53078,1.84958 7.7177,10.4089 9.28063,21.02427 4.46826,30.34832 -0.84807,1.64312 -3.39815,5.35703 -3.67833,5.35703 -0.0631,0 -0.11477,-0.82375 -0.11477,-1.83046 z m 111.08288,1.27506 c -0.36026,-0.43408 -0.21815,-1.50293 0.23781,-1.78828 1.00444,-0.62846 2.15752,0.56587 1.58291,1.63955 -0.30013,0.56081 -1.40393,0.65099 -1.82076,0.14854 z m 78.60526,-0.69661 c -0.34598,-0.528 -0.34534,-0.61092 0.009,-1.15139 0.53618,-0.81831 1.72944,-0.71475 2.04112,0.17764 0.45138,1.29161 -1.29736,2.12266 -2.04989,0.97417 z m -83.86295,-0.81777 c -0.57461,-1.07369 0.57848,-2.26798 1.58291,-1.63952 0.45599,0.28535 0.59815,1.35416 0.23788,1.78824 -0.41685,0.50226 -1.52061,0.41201 -1.82077,-0.14853 z m 89.13579,-0.41533 c -0.53699,-0.59335 -0.373,-1.41109 0.36578,-1.8245 0.55725,-0.31143 0.65132,-0.30463 1.08113,0.0847 0.5821,0.52679 0.60556,1.30091 0.0545,1.79958 -0.54676,0.49485 -1.01651,0.47615 -1.50146,-0.0597 z m -93.85352,-0.82825 c -0.88443,-0.61954 -0.448,-2.14942 0.61316,-2.14942 0.53213,0 1.15704,0.70953 1.15704,1.3138 0,0.4111 -0.74471,1.18988 -1.13802,1.18988 -0.0695,0 -0.35399,-0.15988 -0.63218,-0.35452 z m 99.00831,-0.68288 c -1.133,-0.79359 -0.0562,-2.53607 1.21052,-1.95893 1.02755,0.46824 0.61859,2.31326 -0.51275,2.31326 -0.10553,0 -0.41956,-0.15988 -0.69777,-0.35415 z m -104.24835,-1.05684 c -0.15024,-0.15004 -0.27315,-0.53941 -0.27315,-0.8649 0,-0.76634 0.38814,-1.13802 1.18843,-1.13802 0.83696,0 1.2891,0.85625 0.90143,1.70706 -0.28505,0.62555 -1.3187,0.79389 -1.81673,0.29594 z m 185.96516,-0.30614 c -0.65714,-0.17726 -1.60917,-0.5331 -2.11568,-0.79147 -1.21999,-0.62241 -2.72111,-1.99706 -2.72111,-2.49188 0,-0.60298 3.70953,-3.79068 6.82816,-5.86756 8.59415,-5.72338 17.92286,-6.59577 26.28845,-2.45851 1.37698,0.68103 2.80722,1.48736 3.17833,1.79191 l 0.67469,0.55366 -1.24374,0.15685 c -3.65198,0.45975 -7.396,1.80412 -14.33101,5.14602 -2.8166,1.3573 -5.93153,2.73747 -6.92201,3.06701 -3.68863,1.22729 -7.19197,1.55244 -9.63608,0.89427 z m -76.85768,-0.46118 c -0.71261,-0.71259 -0.24571,-1.91837 0.74285,-1.91837 0.78798,0 1.17554,0.37531 1.17554,1.13805 0,0.32542 -0.12295,0.71471 -0.27315,0.86487 -0.38295,0.38321 -1.22076,0.34016 -1.64526,-0.0847 z m -113.98962,-1.02591 c -0.45755,-0.26608 -0.53457,-1.34767 -0.12514,-1.7571 0.15024,-0.15005 0.53942,-0.27288 0.8649,-0.27288 0.76282,0 1.13803,0.38747 1.13803,1.17554 0,0.92553 -0.98577,1.37424 -1.87774,0.8547 z M -40.912,448.81348 c -0.88443,-0.6195 -0.44799,-2.14934 0.61315,-2.14934 0.53215,0 1.15706,0.70953 1.15706,1.31368 0,0.41118 -0.74473,1.18995 -1.13803,1.18995 -0.0694,0 -0.35396,-0.15987 -0.63218,-0.35414 z m 60.28298,-0.71981 c -2.821332,-3.42282 -2.711742,-8.76715 0.30478,-14.85823 0.52698,-1.06405 2.03997,-3.72711 3.36217,-5.9178 3.72432,-6.17049 5.34106,-9.64588 6.08224,-13.07459 l 0.39089,-1.80817 0.69689,1.23912 c 0.96046,1.70763 1.79747,3.90414 2.395,6.28513 0.72225,2.87758 0.72362,8.19254 0,11.06313 -0.9873,3.93248 -3.02891,7.98557 -5.77928,11.47313 -1.64564,2.08672 -6.00818,6.44481 -6.45129,6.44481 -0.16857,0 -0.62058,-0.38127 -1.00433,-0.84653 z m -184.4473,-0.69699 c -0.49901,-0.55135 -0.48957,-1.02383 0.0295,-1.49389 0.56386,-0.51028 1.24614,-0.47384 1.76009,0.0941 0.38881,0.42965 0.39623,0.52418 0.085,1.08117 -0.42264,0.75643 -1.33796,0.912 -1.87489,0.31899 z m -50.70505,-0.40305 c -3.86654,-0.70023 -7.72833,-2.2792 -11.27507,-4.61004 -3.18458,-2.09291 -6.91556,-5.24844 -6.91556,-5.849 0,-0.13493 0.4353,-0.67147 0.96733,-1.19192 1.99618,-1.95273 5.25939,-2.81608 8.88608,-2.35097 2.98616,0.38324 5.86031,1.38874 11.0863,3.87953 7.2838,3.47153 11.22235,4.87876 14.56674,5.20452 l 1.70705,0.1663 -1.47945,0.97459 c -5.16863,3.40482 -11.7611,4.82419 -17.54342,3.77707 z m 179.37885,-0.54213 c -0.34057,-0.6364 -0.29163,-1.03166 0.18063,-1.45905 0.60108,-0.54399 1.33702,-0.4639 1.76696,0.192 0.34538,0.52713 0.34538,0.61089 0,1.13802 -0.46697,0.71266 -1.59515,0.78727 -1.94757,0.1285 z m -133.33483,-1.0526 c -1.07838,-0.75534 -0.20549,-2.45012 1.03811,-2.01551 0.46253,0.16177 0.63401,0.38782 0.67832,0.89499 0.0329,0.37342 -0.0185,0.79291 -0.1138,0.9326 -0.31491,0.46179 -1.083,0.55189 -1.60262,0.18822 z m 138.34577,-0.99915 c -0.58746,-0.58746 -0.59056,-1.02596 -0.0121,-1.60491 0.25044,-0.2502 0.60889,-0.4552 0.79668,-0.4552 0.4204,0 1.25182,0.80254 1.25182,1.20831 0,0.97399 -1.34998,1.53861 -2.03679,0.8518 z m -143.39499,-1.58998 c -0.34058,-0.63636 -0.29163,-1.03166 0.18062,-1.45908 0.60107,-0.54395 1.33701,-0.46386 1.76695,0.192 0.34538,0.52705 0.34538,0.61084 0,1.13794 -0.46696,0.71266 -1.59515,0.78727 -1.94756,0.1285 z m 148.0655,-0.82775 c -0.41575,-0.41582 -0.45249,-0.86067 -0.12197,-1.47817 0.26703,-0.49898 1.33449,-0.59989 1.76728,-0.16706 0.43279,0.43279 0.33188,1.50028 -0.16717,1.76731 -0.61748,0.33033 -1.06232,0.29405 -1.47815,-0.12208 z m -152.6142,-1.56329 c -0.36026,-0.43412 -0.21815,-1.50293 0.23785,-1.78824 1.00443,-0.6285 2.15751,0.56583 1.58291,1.63955 -0.30013,0.56077 -1.40394,0.65095 -1.82077,0.14854 z m 157.26389,-1.03801 c -0.25036,-0.24982 -0.45524,-0.60877 -0.45524,-0.79653 0,-0.18822 0.20488,-0.54633 0.45524,-0.79669 0.25035,-0.2502 0.60887,-0.45517 0.79658,-0.45517 0.1878,0 0.54625,0.20523 0.79667,0.45517 0.25035,0.24983 0.45515,0.60888 0.45515,0.79669 0,0.18822 -0.20481,0.54621 -0.45515,0.79653 -0.25043,0.24983 -0.60888,0.45525 -0.79667,0.45525 -0.18773,0 -0.54626,-0.20485 -0.79658,-0.45525 z m -161.65438,-1.42246 c -0.68905,-0.5311 -0.5987,-1.68348 0.15901,-2.02874 0.44819,-0.20409 0.67489,-0.17953 1.13803,0.12397 0.69511,0.45547 0.74196,1.1153 0.12314,1.73409 -0.52583,0.52584 -0.9009,0.57089 -1.42019,0.17083 z m 166.20651,-1.30874 c -0.52569,-0.52569 -0.57128,-0.90334 -0.17076,-1.41297 0.49214,-0.62605 1.23669,-0.70761 1.75231,-0.192 0.58746,0.58749 0.59065,1.02595 0.0121,1.6049 -0.25036,0.2502 -0.60888,0.4552 -0.79658,0.4552 -0.18781,0 -0.54626,-0.20485 -0.79667,-0.4552 z M -188.39513,435.021 c -0.45868,-0.45868 -0.34594,-1.50845 0.19302,-1.7969 1.07367,-0.5746 2.26797,0.57846 1.63951,1.5829 -0.28471,0.45506 -1.45483,0.59173 -1.83253,0.21392 z m 175.18904,-1.35156 c -0.57464,-1.07365 0.57843,-2.26794 1.58285,-1.63952 0.45601,0.28535 0.59821,1.35413 0.23788,1.78832 -0.41676,0.50226 -1.52056,0.41197 -1.8207,-0.14854 z m -179.65458,-1.68979 c -0.46232,-0.46231 -0.46584,-0.78206 -0.0159,-1.42484 0.75575,-1.07898 2.45083,-0.20674 2.01605,1.0374 -0.26328,0.75341 -1.41197,0.97591 -2.0004,0.3874 z m 184.0979894,-1.25476 c -0.6341697,-0.70069 -0.22847,-1.67649 0.7360197,-1.77041 0.5665597,-0.0552 0.8036397,0.0548 1.1031794,0.51209 0.35414,0.54047 0.35474,0.62339 0.008,1.15143 -0.4553297,0.69502 -1.2729894,0.74226 -1.8479791,0.10658 z m -266.2582694,-2.0984 c 0.61985,-2.95804 0.27195,-8.65481 -0.94866,-15.53431 -1.38009,-7.77838 -1.19154,-12.10099 0.69269,-15.88067 0.98855,-1.98296 3.54074,-4.26217 4.77264,-4.26217 0.70914,0 3.25623,6.1849 4.35858,10.58358 0.82851,3.30607 0.99356,8.68404 0.35973,11.72168 -1.02115,4.89392 -3.04685,8.64635 -6.66216,12.34103 -1.32039,1.34933 -2.50649,2.45333 -2.6358,2.45333 -0.15501,0 -0.13354,-0.48458 0.063,-1.42247 z m 77.90939,0.27251 c -0.32364,-0.32353 -0.42053,-0.62038 -0.31581,-0.9673 0.30274,-1.00335 1.2282,-1.30677 1.90906,-0.62593 0.58742,0.58749 0.59061,1.02596 0.0121,1.60487 -0.57897,0.57898 -1.01745,0.57585 -1.60488,-0.0113 z m -36.5305,-0.76124 c -3.77647,-0.72106 -6.50739,-1.86142 -9.99638,-4.17411 -2.65421,-1.75933 -6.7928,-5.75573 -9.00171,-8.69238 l -1.44253,-1.91781 0.87987,-0.76055 c 1.83312,-1.58465 5.44093,-2.08604 8.80984,-1.22442 3.20466,0.81963 5.98855,2.38877 11.33139,6.3871 5.58177,4.17702 10.5762,7.09939 13.25802,7.7574 0.59463,0.14589 1.08112,0.33374 1.08112,0.41666 0,0.24113 -3.03602,1.35685 -5.07575,1.86554 -2.41413,0.60211 -7.54888,0.78073 -9.84387,0.34242 z m 229.0548976,-0.70651 c -0.3877,-0.85084 0.0646,-1.70706 0.9014497,-1.70706 0.8001997,0 1.1884194,0.37153 1.1884194,1.13802 0,0.76634 -0.3882197,1.13801 -1.1884194,1.13801 -0.46419,0 -0.7140897,-0.15798 -0.9014497,-0.56897 z M 51.7342,427.32051 c -2.01993,-0.43041 -4.61356,-2.04978 -4.61356,-2.88052 0,-0.5712 5.71648,-6.06044 7.91112,-7.59663 3.63779,-2.54638 7.37975,-4.21013 11.32155,-5.03399 3.17893,-0.66429 8.65712,-0.2279 12.13946,0.96669 1.63351,0.56035 4.81718,2.04612 4.81718,2.2481 0,0.0843 -0.79375,0.32466 -1.76393,0.53447 -3.29739,0.71315 -7.15316,2.6341 -15.67677,7.8099 -2.9939,1.81795 -5.51131,2.9591 -7.98192,3.61814 -1.62757,0.43415 -4.85959,0.60952 -6.15313,0.33411 z m -252.88037,-1.49506 c -1.07899,-0.75572 -0.20678,-2.4508 1.03737,-2.016 0.85103,0.29707 0.99229,1.47998 0.23981,2.00704 -0.63696,0.44613 -0.65281,0.44625 -1.27714,0.008 z m 241.63401,-0.4992 c -1.78922,-1.89132 -2.47328,-3.8589 -2.46743,-7.09709 0.008,-3.93596 0.63718,-5.9927 4.08356,-13.33054 3.5589,-7.57723 5.01108,-11.77867 5.01512,-14.50983 0,-0.5946 0.10529,-1.0811 0.23198,-1.0811 0.70832,0 3.34669,5.28004 4.22009,8.4457 0.80527,2.91858 1.00304,7.40526 0.45541,10.33175 -1.06377,5.68501 -3.74136,10.84671 -8.43354,16.25767 -0.87616,1.01035 -1.75154,1.83697 -1.94535,1.83697 -0.19381,0 -0.71572,-0.384 -1.15987,-0.85353 z m -40.70911422,-0.96734 c -0.25043001,-0.24982 -0.45523001,-0.60888 -0.45523001,-0.79668 0,-0.18747 0.20477,-0.54622 0.45523001,-0.79661 0.2503598,-0.24983 0.60887981,-0.45517 0.79657981,-0.45517 0.18781,0 0.54626001,0.20485 0.79668001,0.45517 0.25035,0.24982 0.45515,0.60888 0.45515,0.79661 0,0.18784 -0.20481,0.54633 -0.45515,0.79668 -0.25043,0.24983 -0.60888001,0.45517 -0.79668001,0.45517 -0.18773,0 -0.54624001,-0.20523 -0.79657981,-0.45517 z M -205.24307,422.41129 c -0.28245,-0.19767 -0.50586,-0.59418 -0.50586,-0.89749 0,-0.53291 0.73872,-1.25186 1.28623,-1.25186 0.91862,0 1.36275,1.83285 0.54958,2.26806 -0.58403,0.31219 -0.73325,0.29972 -1.32995,-0.1183 z M 3.9262956,421.04567 c -0.28252,-0.19767 -0.50591,-0.59422 -0.50591,-0.89756 0,-0.53284 0.73878,-1.25178 1.28624,-1.25178 0.45283,0 0.98987,0.67906 0.98987,1.25178 0,0.57271 -0.53704,1.25189 -0.98987,1.25189 -0.15096,0 -0.50212,-0.15988 -0.78033,-0.35414 z M -209.33483,418.86106 c -0.36072,-0.36056 -0.36673,-1.38357 -0.0106,-1.74005 0.4157,-0.41579 1.20105,-0.32693 1.66775,0.18897 0.61866,0.68361 0.22878,1.67611 -0.69428,1.76731 -0.37395,0.0393 -0.80735,-0.0605 -0.96322,-0.21619 z M 7.6663656,417.34203 c -0.47304,-0.52267 -0.47958,-1.04148 -0.0189,-1.50213 0.5419603,-0.54191 1.39687,-0.44293 1.8255297,0.21127 0.34537,0.5271 0.34537,0.61089 0,1.13798 -0.4432797,0.67654 -1.2692894,0.74638 -1.8064197,0.15232 z M -213.24848,415.15459 c -0.36027,-0.43415 -0.21816,-1.50296 0.23784,-1.78832 1.00444,-0.62842 2.15752,0.56587 1.58292,1.63952 -0.30013,0.56085 -1.40393,0.65107 -1.82077,0.14854 z m 224.765896,-1.47447 c -0.52828,-0.58367 -0.37546,-1.42174 0.32224,-1.7684 0.746171,-0.37039 1.451481,0.0673 1.557981,0.96764 0.13198,1.11481 -1.1153,1.64602 -1.880231,0.80076 z m -228.524506,-2.28563 c -0.85636,-0.94628 0.23116,-2.30173 1.41423,-1.76269 0.28165,0.12812 0.51212,0.31067 0.51212,0.40569 0,0.0949 0.0591,0.32617 0.13138,0.51489 0.16267,0.42387 -0.66529,1.28798 -1.23416,1.28798 -0.23096,0 -0.60158,-0.20069 -0.82359,-0.44598 z m 232.184488,-1.56344 c -0.473141,-0.52278 -0.479671,-1.04156 -0.0189,-1.50217 0.54187,-0.54187 1.39686,-0.44288 1.82552,0.21128 0.345371,0.52709 0.345371,0.61088 0,1.13801 -0.44328,0.6765 -1.26929,0.74638 -1.80651,0.15269 z m -235.720668,-2.31503 c -0.53218,-0.5322 -0.56998,-0.89409 -0.153,-1.46442 0.59986,-0.82031 2.20141,-0.30274 2.20141,0.71131 0,0.40558 -0.83144,1.20831 -1.25183,1.20831 -0.18781,0 -0.54626,-0.20485 -0.79662,-0.4552 z m -27.19886,-0.46462 c -8.7671,-1.36146 -15.98263,-7.21073 -21.03964,-17.05565 -0.63353,-1.23337 -1.15189,-2.41065 -1.15189,-2.61611 0,-0.60306 1.93994,-1.32253 3.87499,-1.4372 2.07548,-0.12284 4.01495,0.3239 6.18777,1.42533 2.44595,1.24003 3.96912,2.47397 7.12146,5.76896 8.12014,8.48761 10.90252,11.0239 13.71268,12.50007 0.65691,0.34507 1.19463,0.6932 1.19493,0.77378 0.002,0.54577 -7.41909,1.02614 -9.9003,0.64082 z m 266.542169,-1.03109 c -0.54186,-0.54191 -0.44293,-1.3968 0.21132,-1.82551 0.527071,-0.34545 0.610941,-0.34545 1.138011,0 0.9608,0.62955 0.55597,2.18316 -0.56905,2.18316 -0.23248,0 -0.583581,-0.161 -0.780321,-0.35792 z m -242.996349,-2.62235 c -0.5746,-1.07373 0.57847,-2.26806 1.58291,-1.63956 0.45599,0.28535 0.59816,1.35417 0.23785,1.78828 -0.41685,0.50226 -1.52061,0.41197 -1.82078,-0.14853 z m -66.13911,-1.64311 c 0.91971,-3.66441 0.64885,-8.70826 -0.93733,-17.45458 -0.76159,-4.19943 -0.86067,-9.69116 -0.21764,-12.06308 0.83835,-3.09237 2.41705,-5.37426 4.57398,-6.61138 0.6403,-0.36737 1.24729,-0.66871 1.34885,-0.66992 0.29042,-0.003 2.31584,4.42171 3.21317,7.02002 3.13278,9.07136 2.37947,17.31103 -2.21375,24.21422 -1.21414,1.82472 -4.52327,5.39694 -5.46774,5.90242 -0.39771,0.21278 -0.42889,0.17801 -0.29953,-0.33789 z m 312.5495,0.16819 c -0.42444,-0.42448 -0.46746,-1.26222 -0.0843,-1.64527 0.1502,-0.15005 0.53937,-0.27326 0.86489,-0.27326 0.32545,0 0.71468,0.12283 0.86488,0.27326 0.1502,0.15005 0.27315,0.53945 0.27315,0.86494 0,0.32542 -0.12295,0.71471 -0.27315,0.86487 -0.38295,0.38321 -1.22077,0.34016 -1.6453,-0.0847 z m 37.19725,-0.26533 c -4.71222,-3.07699 -5.73135,-9.5486 -3.0456,-19.34128 1.95576,-7.13098 2.68525,-11.51039 2.5544,-15.33418 l -0.0851,-2.47786 1.32159,1.30564 c 1.72383,1.70309 3.36999,4.10321 4.60564,6.71509 3.35615,7.09417 3.045,14.99085 -0.92802,23.55152 -1.23118,2.65273 -3.23116,5.98027 -3.58489,5.96458 -0.14815,-0.008 -0.52535,-0.17915 -0.8383,-0.38362 z m 9.04638,-0.74695 c -1.16149,-0.29404 -3.12861,-1.3116 -3.12861,-1.61797 0,-0.37266 2.07516,-3.73418 3.42471,-5.54725 3.69766,-4.96721 7.92876,-8.46157 12.57965,-10.38909 5.003078,-2.07353 11.448168,-2.34059 16.657012,-0.69026 1.077546,0.34129 1.269616,0.46711 0.910416,0.596 -3.25242,1.16651 -7.84895,4.45719 -13.54254,9.69535 -6.114078,5.62504 -10.067398,7.87076 -14.221238,8.07844 -1.00365,0.0499 -2.20945,-0.004 -2.6794,-0.12548 z m -295.9267,-1.49132 c -0.47521,-0.4752 -0.45227,-1.0794 0.0586,-1.54171 0.60107,-0.54395 1.33702,-0.46382 1.76696,0.19238 0.34537,0.52709 0.34537,0.61088 0,1.13798 -0.42868,0.65427 -1.28364,0.75329 -1.82552,0.21127 z m 252.96712,-1.69077 c -0.25035,-0.24983 -0.45515,-0.58927 -0.45515,-0.75315 0,-1.15226 1.83592,-1.55546 2.31319,-0.50804 0.20421,0.44821 0.17953,0.67491 -0.12397,1.13805 -0.4554,0.69513 -1.11521,0.74196 -1.73407,0.12321 z m -256.05604,-2.50368 c -0.2504,-0.2502 -0.45522,-0.60884 -0.45522,-0.79661 0,-0.42047 0.80255,-1.25185 1.20833,-1.25185 0.57777,0 1.12462,0.60873 1.12462,1.25185 0,0.64309 -0.54685,1.25182 -1.12462,1.25182 -0.16384,0 -0.50275,-0.20523 -0.75311,-0.45521 z M 28.6061,393.44317 c -0.48956,-0.541 -0.47691,-1.01578 0.0394,-1.4832 0.60105,-0.54391 1.33699,-0.46386 1.76694,0.192 0.34537,0.52717 0.34537,0.61096 0,1.13806 -0.44329,0.67653 -1.26929,0.74638 -1.80651,0.15269 z m -262.22044,-2.44505 c -0.66474,-0.66474 -0.22839,-2.14598 0.63218,-2.14598 0.54751,0 1.28621,0.71895 1.28621,1.25182 0,0.53292 -0.7387,1.25186 -1.28621,1.25186 -0.15099,0 -0.43545,-0.16101 -0.63218,-0.35792 z m 265.32101,-1.7475 c -0.75375,-0.97421 -0.2394,-2.06086 0.92192,-1.94744 0.95667,0.0937 1.35944,1.07233 0.72819,1.76984 -0.46892,0.51817 -1.31599,0.6093 -1.65011,0.17764 z m -268.3644,-2.7199 c -0.49804,-0.49799 -0.32969,-1.53169 0.2959,-1.81674 0.85082,-0.38782 1.70703,0.0643 1.70703,0.90145 0,0.80024 -0.37172,1.1884 -1.13803,1.1884 -0.32549,0 -0.71468,-0.12284 -0.86489,-0.27288 z m 271.04052,-1.98795 c -0.34053,-0.6364 -0.29166,-1.03178 0.18059,-1.45913 0.83168,-0.75254 1.85984,-0.33146 1.85984,0.76131 0,0.32542 -0.12291,0.71471 -0.27315,0.86495 -0.43279,0.43275 -1.50026,0.33184 -1.76728,-0.16706 z m -273.80589,-2.61861 c -0.86054,-1.03699 0.5806,-2.51312 1.57492,-1.61329 0.51569,0.46673 0.60469,1.252 0.18898,1.66771 -0.37595,0.37607 -1.43376,0.34318 -1.7639,-0.0544 z m 276.4797,-2.07995 c -0.2874,-0.63077 -0.10817,-1.12717 0.55906,-1.54806 0.61525,-0.38816 1.5388,0.17991 1.5388,0.94632 0,0.35301 -0.12291,0.76509 -0.27315,0.91533 -0.50547,0.50551 -1.53192,0.32881 -1.82474,-0.31371 z m -299.25167,-0.56542 c -9.20883,-1.12157 -16.59873,-7.04689 -21.85693,-17.52503 -0.63005,-1.25552 -1.08917,-2.37403 -1.02026,-2.48553 0.34216,-0.55362 2.79402,-1.19421 4.56491,-1.19263 4.53847,0.004 8.57819,2.54544 14.60263,9.18637 5.20289,5.73536 9.01799,9.12949 11.86382,10.55471 0.66672,0.33449 1.159,0.6604 1.09396,0.72541 -0.58348,0.58344 -6.58245,1.06132 -9.24813,0.7367 z m 20.01793,-2.0555 c -0.5746,-1.07365 0.57848,-2.26794 1.58291,-1.63952 0.45599,0.28536 0.59815,1.35417 0.23789,1.78832 -0.41685,0.50227 -1.52061,0.41197 -1.82077,-0.14853 z m 281.88698,-1.90231 c -0.67745,-1.03389 0.21025,-2.0115 1.46498,-1.61325 1.07204,0.34016 0.61585,2.17111 -0.54092,2.17111 -0.34163,0 -0.70049,-0.21657 -0.92406,-0.55786 z m 34.38211,-0.42731 c -2.0269,-0.79468 -3.88235,-2.57635 -4.94312,-4.74641 -1.72478,-3.52868 -2.12402,-7.15872 -1.64271,-14.93624 0.45842,-7.40787 0.12155,-13.16519 -0.91573,-15.64762 -0.43949,-1.05191 -0.1516,-1.00679 1.61364,0.25285 3.04224,2.17089 6.02332,5.6476 7.6976,8.97759 3.51934,6.99923 3.46936,15.38865 -0.15008,25.20729 -0.46488,1.26104 -0.57241,1.31883 -1.65958,0.89254 z m -318.5338,-2.20127 c -0.25038,-0.25021 -0.45521,-0.60885 -0.45521,-0.79661 0,-0.44123 0.81067,-1.25186 1.25183,-1.25186 0.18781,0 0.55149,0.20976 0.80826,0.46689 0.51567,0.51564 0.43413,1.26013 -0.19193,1.75226 -0.5096,0.40059 -0.88728,0.3549 -1.41294,-0.17083 z m 325.20239,-0.57366 c -0.58841,-0.18935 -1.12949,-0.44039 -1.20228,-0.5582 -0.1897,-0.3069 1.32804,-4.27827 2.65531,-6.94817 1.764868,-3.55011 3.449908,-5.91685 6.086208,-8.54827 3.98541,-3.97806 7.61252,-5.93824 12.814332,-6.925 1.95777,-0.37115 8.03098,-0.48291 8.23587,-0.1508 0.0661,0.10696 -0.36586,0.50861 -0.95903,0.89318 -2.72648,1.7667 -5.95388,5.32395 -10.474288,11.5449 -4.259644,5.86216 -7.695104,9.06146 -11.123514,10.35885 -1.71713,0.64986 -4.560398,0.80716 -6.032608,0.33412 z m -38.60169,-1.29271 c -0.38295,-0.38321 -0.33997,-1.22079 0.0843,-1.64531 0.42453,-0.42447 1.26232,-0.46748 1.6453,-0.0847 0.1502,0.15005 0.27315,0.53942 0.27315,0.86491 0,0.32542 -0.12291,0.71467 -0.27315,0.86491 -0.15019,0.15004 -0.53946,0.27288 -0.86489,0.27288 -0.32553,0 -0.71469,-0.12284 -0.86497,-0.27288 z m -346.29317,-2.50382 c 1.21194,-3.00046 1.77328,-7.19743 2.10961,-15.77292 0.28157,-7.17906 0.71293,-9.49315 2.39871,-12.86789 0.40871,-0.81819 1.20734,-2.00394 1.77476,-2.63501 1.14488,-1.27344 3.30713,-2.54668 4.48824,-2.64291 0.71216,-0.0582 0.791,0.004 1.07803,0.84782 0.17033,0.50071 0.57874,2.13948 0.90759,3.64169 0.53703,2.45307 0.59894,3.21815 0.60788,7.51094 0.0106,5.029 -0.14879,6.21283 -1.28099,9.5229 -1.76815,5.16926 -5.73319,9.94367 -10.79053,12.99311 -0.74099,0.44681 -1.46338,0.81263 -1.6053,0.81297 -0.15869,0 -0.0385,-0.54289 0.31201,-1.4107 z m 57.46707,-0.30841 c -1.133,-0.79359 -0.0563,-2.5361 1.2105,-1.95893 1.02755,0.46817 0.61859,2.31322 -0.51273,2.31322 -0.10557,0 -0.41955,-0.15988 -0.69777,-0.35414 z m 291.10222,-1.96729 c -0.15028,-0.15004 -0.27315,-0.53945 -0.27315,-0.86494 0,-0.32542 0.12284,-0.71471 0.27315,-0.86487 0.1502,-0.15005 0.53937,-0.27288 0.86489,-0.27288 0.32545,0 0.71468,0.12283 0.86488,0.27288 0.1502,0.15005 0.27315,0.53941 0.27315,0.86487 0,0.32542 -0.12295,0.71475 -0.27315,0.86494 -0.1502,0.15005 -0.53946,0.27289 -0.86488,0.27289 -0.32554,0 -0.7147,-0.12246 -0.86489,-0.27289 z m -293.5037,-3.15435 c -0.52933,-0.75579 -0.0264,-1.80752 0.86399,-1.80752 1.45571,0 1.6392,2.09102 0.19588,2.23192 -0.52504,0.0514 -0.80524,-0.0612 -1.05985,-0.4244 z m 295.65567,-1.76852 c -0.54401,-0.60109 -0.46384,-1.33708 0.19238,-1.76697 0.52707,-0.34544 0.61086,-0.34544 1.13802,0 1.03736,0.67972 0.60174,2.18317 -0.63262,2.18317 -0.17658,0 -0.4906,-0.18708 -0.69775,-0.4162 z m -297.49929,-2.90029 c -0.54188,-0.54191 -0.44289,-1.39688 0.21135,-1.82555 0.52711,-0.34545 0.61092,-0.34545 1.13803,0 0.96084,0.62959 0.55591,2.18324 -0.56902,2.18324 -0.2325,0 -0.58364,-0.16101 -0.78036,-0.35792 z m 299.26391,-2.25978 c -0.34537,-0.52713 -0.34537,-0.61093 0,-1.13806 0.62961,-0.96083 2.18321,-0.55589 2.18321,0.56901 0,1.12494 -1.5536,1.52984 -2.18321,0.56905 z m -316.49124,-2.17822 c -8.83929,-1.29902 -15.46182,-6.3058 -19.63382,-14.84368 -1.87021,-3.82734 -3.69726,-9.67079 -3.18414,-10.18386 0.12054,-0.12094 0.80148,-0.32693 1.51321,-0.45842 3.2351,-0.59803 6.93706,1.05196 10.30476,4.59292 1.72002,1.80854 2.93973,3.52989 5.4085,7.63283 3.83661,6.37622 7.05628,10.65067 9.26375,12.29874 0.62387,0.46571 1.13433,0.92738 1.13433,1.0258 0,0.22601 -3.11428,0.18406 -4.80659,-0.0643 z m 15.44714,-0.45763 c -0.45754,-0.26607 -0.53457,-1.3477 -0.12519,-1.7571 0.15024,-0.15005 0.53943,-0.27288 0.86491,-0.27288 0.72575,0 1.13802,0.38166 1.13802,1.05347 0,0.98555 -0.98388,1.49733 -1.87774,0.97674 z M 50.2286,351.10884 c -0.47304,-0.52271 -0.47958,-1.04153 -0.0189,-1.50217 0.54186,-0.54184 1.39686,-0.44289 1.82552,0.21127 0.34537,0.52709 0.34537,0.61089 0,1.13798 -0.44329,0.67653 -1.26929,0.74642 -1.80651,0.15269 z m -304.68508,-2.99781 c -0.25037,-0.24983 -0.45522,-0.5893 -0.45522,-0.75315 0,-1.1523 1.83598,-1.5555 2.31322,-0.50808 0.20421,0.44825 0.17952,0.67495 -0.12392,1.13809 -0.45545,0.6951 -1.11524,0.74196 -1.73408,0.12322 z m 306.23679,-2.05542 c -0.33075,-0.3651 -0.37281,-0.591 -0.20119,-1.07887 0.23116,-0.65748 0.71547,-0.85685 1.56393,-0.64388 0.66711,0.16706 0.89138,0.99614 0.45136,1.66768 -0.42184,0.64385 -1.25827,0.66924 -1.81407,0.0548 z m 31.59493,-0.22072 c -3.19288,-1.13526 -5.59424,-3.99387 -7.15161,-8.51346 -0.8051,-2.33643 -1.24185,-4.41181 -1.80092,-8.55708 -1.10283,-8.17708 -2.08867,-11.78642 -4.49071,-16.44061 -0.12363,-0.23924 1.47926,0.35377 2.9243,1.08223 2.54545,1.28323 4.48856,2.72811 6.69818,4.98063 3.41,3.47626 5.341578,7.08408 6.518908,12.17639 0.64715,2.79874 0.81765,9.02532 0.34514,12.60015 -0.19457,1.4725 -0.41642,2.77837 -0.49283,2.902 -0.20719,0.33562 -1.21595,0.24415 -2.550438,-0.23018 z m -339.14671,-2.63029 c -0.89378,-0.62608 -0.44573,-2.14938 0.63217,-2.14938 1.0779,0 1.52595,1.5233 0.63217,2.14938 -0.27821,0.19502 -0.5627,0.35414 -0.63217,0.35414 -0.0695,0 -0.35395,-0.15912 -0.63217,-0.35414 z m 345.681958,-1.20317 c -0.68406,-0.21015 -0.68149,-0.64721 0.0268,-4.47406 1.16588,-6.30028 3.70429,-11.81151 7.33115,-15.91702 2.781242,-3.14831 7.514222,-5.97075 11.861992,-7.07362 2.07187,-0.52554 5.134,-0.97606 5.134,-0.75518 0,0.0559 -0.50098,0.62158 -1.11326,1.25673 -2.26862,2.3537 -4.7076,6.4676 -7.60125,12.82155 -1.05325,2.31273 -2.40097,5.02435 -2.99492,6.02582 -2.24555,3.78595 -5.165502,6.62388 -7.864452,7.64326 -1.34722,0.50884 -3.85629,0.75689 -4.78001,0.47252 z m -36.328408,-0.714 c -0.26434,-0.10696 -0.53077,-0.38585 -0.59202,-0.62003 -0.31158,-1.19149 0.99934,-2.10644 1.87834,-1.31089 0.57051,0.51625 0.56724,1.12233 -0.009,1.69871 -0.50092,0.5009 -0.57757,0.51485 -1.2772,0.23169 z m -310.88987,-3.42557 c -0.59937,-0.66229 -0.22926,-1.67203 0.6501,-1.77354 0.81239,-0.0937 1.29079,0.30652 1.29079,1.07996 0,1.15801 -1.149,1.56862 -1.94089,0.69358 z m 311.86091,-2.00258 c -0.75262,-0.83157 -0.33169,-1.85979 0.76132,-1.85979 0.76285,0 1.13809,0.38743 1.13809,1.17547 0,1.02221 -1.20184,1.45515 -1.89941,0.68432 z m -368.18702,-0.5966 c 0,-0.0567 0.31266,-0.56565 0.69477,-1.13182 1.7376,-2.57469 3.44282,-7.442 5.06956,-14.47052 1.71729,-7.41982 3.28492,-11.03573 5.96955,-13.76943 1.5697,-1.59828 3.23906,-2.50972 5.29851,-2.8927 1.10239,-0.20522 1.47417,-0.20107 1.69266,0.0151 0.46198,0.46213 0.35969,8.97305 -0.13849,11.52363 -1.44581,7.4022 -4.52479,12.73822 -9.5237,16.50497 -2.85961,2.15482 -9.06287,5.04219 -9.06287,4.21848 z m 55.06917,-2.65005 c -0.57461,-1.07369 0.57848,-2.26799 1.58291,-1.63953 0.45599,0.28536 0.59815,1.35413 0.23786,1.78829 -0.41683,0.50226 -1.52061,0.41193 -1.82076,-0.14854 z m 314.15229,-1.84517 c -0.1502,-0.15005 -0.27314,-0.53941 -0.27314,-0.86491 0,-0.32541 0.12291,-0.71471 0.27314,-0.86487 0.1502,-0.15004 0.53946,-0.27288 0.86489,-0.27288 0.72578,0 1.1381,0.3817 1.1381,1.05358 0,0.9967 -1.32675,1.62562 -2.00299,0.94942 z m -328.39369,-3.24476 c -4.20602,-1.08733 -7.55926,-2.92966 -10.66112,-5.85748 -2.4594,-2.32131 -4.05295,-4.53267 -5.58737,-7.75358 -1.841,-3.86446 -3.05323,-9.17692 -3.23269,-14.16684 l -0.0655,-1.82079 h 1.82084 c 1.57947,0 2.02638,0.0975 3.37132,0.73436 2.92517,1.38546 5.79322,4.80783 7.67034,9.15262 0.463,1.07165 1.43525,3.63844 2.16056,5.70395 2.11355,6.01893 4.47715,10.97193 6.22362,13.04179 1.24819,1.47923 1.27305,1.52621 0.80202,1.51374 -0.2344,-0.004 -1.36032,-0.25286 -2.50204,-0.54777 z m 13.39811,0.0684 c -0.45868,-0.45869 -0.34592,-1.50849 0.19302,-1.7969 1.07366,-0.57464 2.26796,0.57845 1.63951,1.5829 -0.28473,0.45506 -1.45484,0.59169 -1.83253,0.21392 z m 315.90606,-2.0587 c -0.15027,-0.15005 -0.27315,-0.53942 -0.27315,-0.86491 0,-0.32542 0.12284,-0.71467 0.27315,-0.8649 0.1502,-0.15005 0.53937,-0.27289 0.86488,-0.27289 0.32546,0 0.71469,0.12284 0.86489,0.27289 0.1502,0.15004 0.27315,0.53945 0.27315,0.8649 0,0.32542 -0.12291,0.71464 -0.27315,0.86491 -0.1502,0.15005 -0.53945,0.27288 -0.86489,0.27288 -0.32553,0 -0.71468,-0.12283 -0.86488,-0.27288 z m -316.86426,-3.35358 c -0.34059,-0.63639 -0.29165,-1.03173 0.18062,-1.45912 0.60106,-0.54399 1.33701,-0.46382 1.76695,0.192 0.34537,0.52713 0.34537,0.61096 0,1.13805 -0.46696,0.71267 -1.59516,0.78728 -1.94757,0.12851 z m 317.63159,-1.96584 c -0.71262,-0.71259 -0.2457,-1.91838 0.74283,-1.91838 0.78797,0 1.1756,0.37493 1.1756,1.13794 0,0.32542 -0.12295,0.71475 -0.27314,0.86502 -0.38307,0.38321 -1.22077,0.34016 -1.6453,-0.0847 z m 31.393298,-1.78231 c -2.59517,-0.82288 -4.83335,-2.70463 -6.885968,-5.78945 -1.45218,-2.18256 -2.4633,-4.43841 -4.14808,-9.25481 -2.26089,-6.46352 -4.23833,-10.61548 -6.39719,-13.43218 -1.30094,-1.69738 -1.26129,-1.72667 1.41251,-1.04284 4.45175,1.13858 8.03948,3.10382 11.162578,6.11448 4.10447,3.95671 6.6685,8.93994 7.90992,15.37228 0.4764,2.46883 0.99719,7.83005 0.79279,8.16091 -0.17794,0.288 -2.81126,0.19993 -3.84656,-0.12813 z M -260.96417,316.8153 c -0.34537,-0.5271 -0.34537,-0.61096 0,-1.13806 0.44326,-0.67646 1.26931,-0.7463 1.80649,-0.15231 0.47308,0.52275 0.47965,1.04152 0.019,1.50213 -0.54187,0.54187 -1.39683,0.44293 -1.82551,-0.21127 z m 318.68152,-1.99669 c -0.44001,-0.67151 -0.21578,-1.50017 0.45137,-1.66768 0.84845,-0.21316 1.33277,-0.0113 1.56391,0.64388 0.43864,1.24713 -1.29268,2.12667 -2.01528,1.0238 z m 37.258318,-1.45308 c -0.0944,-0.23055 -0.16675,-2.41678 -0.16093,-4.85782 0.008,-3.62302 0.10254,-4.90046 0.51038,-6.95396 1.54147,-7.76061 5.027262,-13.22921 10.892402,-17.08818 2.58473,-1.70056 7.08271,-3.62767 7.49804,-3.21238 0.0767,0.0767 -0.11565,0.47914 -0.42701,0.8942 -1.82321,2.42873 -3.73852,7.85284 -5.37737,15.22878 -1.19105,5.36031 -2.2229,8.17644 -4.00583,10.93251 -2.06015,3.18474 -4.499076,4.8983 -7.564002,5.31431 -1.03575,0.1406 -1.21666,0.10583 -1.36565,-0.25776 z m -356.395048,-1.78514 c -0.34597,-0.52808 -0.34535,-0.611 0.009,-1.1514 0.53619,-0.81834 1.72942,-0.71474 2.04112,0.17764 0.45138,1.29165 -1.29736,2.12273 -2.04987,0.97425 z M 58.32399,309.7466 c -1.13303,-0.79355 -0.056,-2.53606 1.21053,-1.95886 0.7577,0.34508 0.84803,1.4976 0.159,2.02867 -0.48371,0.37266 -0.75744,0.35905 -1.3695,-0.0699 z m -319.83624,-3.28736 c -0.25037,-0.24983 -0.45521,-0.60888 -0.45521,-0.79661 0,-0.44115 0.81066,-1.25186 1.25183,-1.25186 0.44116,0 1.25183,0.81071 1.25183,1.25186 0,0.44118 -0.81067,1.25182 -1.25183,1.25182 -0.18778,0 -0.54626,-0.20485 -0.79662,-0.45521 z m 319.7361,-2.40752 c -0.46539,-1.02149 0.48974,-1.97669 1.51128,-1.51128 0.64268,0.29329 0.81903,1.31932 0.31358,1.82483 -0.50556,0.50551 -1.532,0.32882 -1.82482,-0.3137 z m -333.20987,-3.37032 c -3.83991,-1.67652 -8.06091,-5.17667 -10.29449,-8.53648 -3.06806,-4.61503 -4.45546,-9.69762 -4.44903,-16.29864 0.003,-3.1982 0.49591,-7.98988 0.85906,-8.35306 0.29156,-0.2914 2.51656,0.24378 3.73729,0.89923 4.09714,2.19979 6.45401,7.23601 7.69561,16.4443 0.98644,7.31592 2.34709,12.71517 3.87912,15.39288 0.38463,0.67223 0.61501,1.22102 0.51194,1.21951 -0.10306,-0.002 -0.97585,-0.34696 -1.9395,-0.76774 z m 13.30195,0.50771 c -0.45868,-0.45873 -0.34591,-1.50856 0.19302,-1.79698 1.07366,-0.57464 2.26796,0.57846 1.6395,1.5829 -0.28472,0.4551 -1.45483,0.59173 -1.83253,0.2143 z m 320.08746,-0.77764 c -0.19677,-0.19692 -0.35774,-0.48125 -0.35774,-0.6322 0,-0.54751 0.71899,-1.28621 1.25183,-1.28621 0.53292,0 1.25182,0.7387 1.25182,1.28621 0,0.45286 -0.67907,0.98985 -1.25182,0.98985 -0.29507,0 -0.6974,-0.161 -0.89414,-0.35792 z m -374.44083,-1.93814 c 2.48487,-2.68294 4.19637,-5.67655 8.76491,-15.33105 1.80469,-3.81373 3.44663,-6.25659 5.54513,-8.24995 1.98661,-1.88708 4.06544,-3.00496 6.00024,-3.22651 1.26211,-0.14438 3.12053,-0.0151 3.3674,0.22828 0.0634,0.0635 -0.0851,1.33701 -0.32991,2.8303 -1.82838,11.1501 -6.87664,18.86135 -14.8932,22.74924 -2.41152,1.16958 -5.68044,2.10255 -8.0995,2.31167 l -1.70703,0.14778 z m 54.25617,-2.82535 c -0.38766,-0.85081 0.0645,-1.70706 0.90143,-1.70706 0.80028,0 1.18843,0.37152 1.18843,1.13805 0,0.76634 -0.38815,1.13809 -1.18843,1.13809 -0.46411,0 -0.71406,-0.15798 -0.90143,-0.56908 z m 320.18466,-0.47146 c -0.42453,-0.42448 -0.46754,-1.26225 -0.0843,-1.64527 0.15019,-0.15004 0.53945,-0.27288 0.86488,-0.27288 0.75219,0 1.13802,0.38585 1.13802,1.13798 0,0.32542 -0.12284,0.71475 -0.27315,0.86491 -0.38295,0.38324 -1.22077,0.34015 -1.64521,-0.0847 z m -319.76656,-4.61065 c -0.7526,-0.83164 -0.33168,-1.85986 0.76134,-1.85986 0.76282,0 1.13803,0.38744 1.13803,1.17551 0,1.02221 -1.20179,1.45515 -1.89937,0.68435 z m 319.53894,-0.62434 c -0.54187,-0.54183 -0.44286,-1.3968 0.21131,-1.82543 0.52716,-0.34545 0.61094,-0.34545 1.13801,0 0.9609,0.62959 0.55598,2.18317 -0.56896,2.18317 -0.23255,0 -0.58368,-0.16101 -0.78041,-0.35792 z m 27.751628,-2.91662 C 81.27049,285.89245 77.77412,281.4263 74.77059,272.7736 c -2.19456,-6.32217 -3.90437,-10.16995 -5.80327,-13.05971 -0.58574,-0.89151 -1.28555,-1.81591 -1.55497,-2.05436 -0.26948,-0.23849 -0.48999,-0.51375 -0.48999,-0.61164 0,-0.53125 4.8847,0.8623 7.61365,2.1721 8.65806,4.15547 13.684708,12.62275 14.678028,24.72476 0.20878,2.54351 0.19389,2.85509 -0.14831,3.11112 -0.46548,0.34847 -1.62611,0.33675 -3.13834,-0.0302 z m -346.835358,-1.69402 c -0.49418,-0.54603 -0.47808,-1.24229 0.0396,-1.71073 0.54099,-0.48956 1.01573,-0.47694 1.48314,0.0393 0.49417,0.54606 0.47808,1.24233 -0.0396,1.71076 -0.54099,0.4896 -1.01573,0.47694 -1.48314,-0.0393 z m 318.77671,-0.6209 c -0.61353,-0.42973 -0.65551,-1.26059 -0.0896,-1.77268 0.789,-0.71406 1.85983,-0.20825 1.85983,0.87852 0,0.45815 -0.72045,1.24845 -1.13801,1.24845 -0.0697,0 -0.35399,-0.15949 -0.63219,-0.35414 z m 33.782438,-3.79949 c -0.21853,-1.8195 -0.17526,-5.62321 0.0922,-8.08898 0.60321,-5.56316 2.50881,-10.71205 5.31326,-14.35668 1.56967,-2.03989 4.649022,-4.79509 6.768972,-6.05639 1.72635,-1.02709 4.79686,-2.34376 6.39767,-2.74345 l 0.62484,-0.15647 -0.89976,1.34751 c -1.83066,2.74129 -3.31534,6.94205 -5.01716,14.19527 -1.33331,5.68312 -1.9857,7.68037 -3.36281,10.29622 -2.205186,4.18878 -5.602092,6.75738 -8.936302,6.75738 h -0.83736 z m -351.729378,-0.64516 c -0.95608,-0.35339 -0.85295,-1.82181 0.15034,-2.1402 0.96323,-0.30576 1.86993,0.77844 1.39429,1.66719 -0.28234,0.52755 -0.89229,0.71429 -1.54463,0.47301 z m 317.49634,-0.68765 c -0.73103,-0.27061 -0.91133,-1.26947 -0.33343,-1.84736 0.90729,-0.90727 2.34734,0.051 1.88892,1.25643 -0.24041,0.63217 -0.83418,0.85769 -1.55549,0.59093 z m -316.85566,-4.6718 c -0.64654,-0.45286 -0.64951,-1.57115 -0.005,-1.91603 0.7128,-0.38165 1.53964,-0.0831 1.71589,0.61909 0.27875,1.11061 -0.80446,1.93175 -1.7108,1.29694 z m -15.08854,-2.02117 c -4.80822,-3.60866 -8.09044,-8.784 -9.28341,-14.63796 -0.52737,-2.58781 -0.62395,-7.04281 -0.21636,-9.9812 0.54449,-3.9255 2.4811,-10.12925 3.20559,-10.26875 0.69165,-0.13342 2.575,0.95327 3.84683,2.21915 1.46691,1.46006 2.49366,3.39968 3.19813,6.04157 0.57013,2.13804 0.6777,6.92973 0.33983,15.13576 -0.24376,5.92014 0.12224,9.97085 1.14064,12.62483 0.23401,0.60987 -0.20688,0.38585 -2.23123,-1.1334 z m 330.80671,1.21931 c -0.45868,-0.45872 -0.34591,-1.5086 0.19302,-1.79698 1.07367,-0.57464 2.26793,0.57846 1.63953,1.58291 -0.28475,0.45505 -1.45484,0.59172 -1.83257,0.2143 z m -314.7834,-4.416 c -0.89377,-0.62604 -0.44573,-2.14938 0.63217,-2.14938 1.0779,0 1.52595,1.52334 0.63218,2.14938 -0.27822,0.19502 -0.5627,0.35414 -0.63218,0.35414 -0.0695,0 -0.35395,-0.15987 -0.63217,-0.35414 z m 314.08265,-0.69184 c -0.75254,-0.52702 -0.61121,-1.7096 0.23969,-2.00701 1.24417,-0.43479 2.11637,1.26025 1.03737,2.01604 -0.62428,0.43729 -0.6401,0.43718 -1.27711,-0.008 z m -313.05217,-4.43467 c -0.61439,-0.35792 -0.5148,-1.48815 0.17071,-1.93728 0.5271,-0.34544 0.61092,-0.34544 1.13803,0 0.6765,0.44319 0.74636,1.26925 0.15278,1.80647 -0.4735,0.42856 -0.88691,0.46556 -1.46152,0.13077 z m -57.51713,-0.39583 c -0.53431,-0.1629 -0.50982,-0.19881 0.55764,-0.82481 2.40114,-1.40716 6.91462,-6.35346 10.81137,-11.84825 0.79899,-1.1266 2.1028,-2.83604 2.89735,-3.79861 4.59619,-5.56838 9.70577,-7.97711 14.13287,-6.66237 1.43369,0.42577 1.44429,0.50967 0.40724,3.22719 -4.03338,10.56922 -10.52437,17.10773 -19.26315,19.40417 -1.4844,0.38978 -2.74131,0.52592 -5.45656,0.58995 -1.94033,0.0457 -3.77937,0.008 -4.08675,-0.0869 z m 369.33657,-0.28687 c -0.61447,-0.35792 -0.51486,-1.48819 0.17064,-1.93731 0.52707,-0.34545 0.61094,-0.34545 1.13802,0 0.67648,0.44326 0.74634,1.26928 0.15273,1.8065 -0.47348,0.42849 -0.88691,0.46549 -1.46147,0.13077 z m -310.70303,-4.72248 c -0.48959,-0.54096 -0.47694,-1.01575 0.0396,-1.48313 0.60106,-0.54398 1.337,-0.46386 1.76695,0.192 0.34537,0.5271 0.34537,0.61085 0,1.13802 -0.44327,0.6765 -1.26931,0.74634 -1.8065,0.15232 z m 309.21214,-0.53968 c -0.1502,-0.15005 -0.27315,-0.53945 -0.27315,-0.86494 0,-0.75217 0.38589,-1.13802 1.13802,-1.13802 0.75219,0 1.1381,0.38585 1.1381,1.13802 0,0.7522 -0.38589,1.13805 -1.1381,1.13805 -0.32546,0 -0.71461,-0.12284 -0.86489,-0.27288 z m 28.06382,-1.34702 c -2.64309,-0.37493 -5.70804,-2.32899 -8.30167,-5.29289 -1.40237,-1.6026 -2.69264,-3.51239 -5.32455,-7.88134 -3.02917,-5.02851 -4.78225,-7.39245 -7.46896,-10.07153 l -2.45365,-2.44675 1.64598,0.004 c 3.62669,0.008 7.41768,0.88274 10.75017,2.4751 7.24426,3.46148 12.18979,10.09077 15.008018,20.11785 0.3442,1.22468 0.57095,2.36977 0.50385,2.54461 -0.068,0.17764 -0.60484,0.38358 -1.21638,0.46677 -0.601908,0.0816 -1.248038,0.17802 -1.435828,0.21317 -0.18769,0.034 -0.9559,-0.0189 -1.70698,-0.12926 z m -335.6611,-2.95034 c -0.61439,-0.35792 -0.51481,-1.48819 0.1707,-1.93731 0.52711,-0.34545 0.61092,-0.34545 1.13803,0 0.67651,0.44326 0.74637,1.26932 0.15277,1.8065 -0.47351,0.42849 -0.88691,0.46552 -1.46152,0.13077 z m 306.1686,-0.90977 c -0.26011,-0.26003 -0.41371,-0.62691 -0.34144,-0.81521 0.0723,-0.18859 0.13134,-0.43899 0.13134,-0.55706 0,-0.38128 1.1288,-0.67948 1.60546,-0.4244 0.64475,0.34507 0.80983,1.28315 0.32085,1.82347 -0.52087,0.57566 -1.1233,0.56625 -1.71627,-0.0227 z m 34.962768,-3.22575 c -3.949188,-13.62319 -0.87512,-25.20665 8.5274,-32.13237 1.43669,-1.05827 3.608104,-2.28866 3.76397,-2.13283 0.0423,0.0423 -0.212026,0.89428 -0.565676,1.89313 -1.091384,3.08421 -1.824764,8.68392 -1.832664,13.99291 -0.0151,10.86757 -2.56919,17.17557 -7.74802,19.14338 -1.64237,0.62407 -1.75411,0.5842 -2.14501,-0.76422 z m -339.430588,-0.9803 c -0.88444,-0.61946 -0.448,-2.14926 0.61315,-2.14926 0.53213,0 1.15705,0.70953 1.15705,1.31368 0,0.41114 -0.74471,1.18995 -1.13803,1.18995 -0.0695,0 -0.35397,-0.15987 -0.63217,-0.35452 z M 49.8519,248.4198 c -0.25035,-0.24983 -0.45515,-0.60885 -0.45515,-0.79661 0,-0.18785 0.20481,-0.54626 0.45515,-0.79665 0.25043,-0.24983 0.60888,-0.45521 0.79667,-0.45521 0.18781,0 0.54626,0.20485 0.79659,0.45521 0.25035,0.2502 0.45524,0.60888 0.45524,0.79665 0,0.18784 -0.20482,0.54629 -0.45524,0.79661 -0.25036,0.2502 -0.6088,0.4552 -0.79659,0.4552 -0.1878,0 -0.54625,-0.20485 -0.79667,-0.4552 z m -301.17881,-4.11515 c -0.2583,-0.15005 -0.39831,-0.50971 -0.39831,-1.02217 0,-0.61845 0.12163,-0.84556 0.55969,-1.0452 1.26673,-0.57717 2.3435,1.16535 1.2105,1.9589 -0.5852,0.40985 -0.82221,0.42867 -1.37188,0.10847 z m -13.47976,-1.38713 c -4.60408,-3.39617 -7.9088,-8.25191 -9.39009,-13.79735 -0.52883,-1.97975 -0.59218,-2.6462 -0.61025,-6.41979 -0.0174,-3.60877 0.0564,-4.56858 0.51483,-6.71433 0.68795,-3.21955 2.27438,-8.08063 2.68907,-8.23975 0.61744,-0.23735 2.38873,0.67272 3.73251,1.91683 0.99385,0.92012 1.59936,1.74825 2.27096,3.10601 1.79085,3.62026 2.11381,7.14901 1.54758,16.90912 -0.30545,5.26473 -0.047,9.77695 0.71808,12.53778 0.25087,0.90528 0.4561,1.69841 0.4561,1.76259 0,0.2793 -0.43941,0.0393 -1.92879,-1.06111 z m 312.83779,0.49497 c -0.25044,-0.24983 -0.45524,-0.60888 -0.45524,-0.79661 0,-0.18822 0.20477,-0.54629 0.45524,-0.79665 0.25035,-0.24983 0.60879,-0.45521 0.79658,-0.45521 0.18781,0 0.54625,0.20486 0.79667,0.45521 0.25035,0.25021 0.45515,0.60885 0.45515,0.79665 0,0.18746 -0.20477,0.54625 -0.45515,0.79661 -0.25043,0.25021 -0.60888,0.45521 -0.79667,0.45521 -0.1878,0 -0.54625,-0.20485 -0.79658,-0.45521 z m -297.60033,-4.33138 c -0.63411,-0.70072 -0.22843,-1.67652 0.73606,-1.77048 0.56652,-0.0552 0.8036,0.0548 1.10319,0.51213 0.35413,0.54043 0.35472,0.62336 0.009,1.15143 -0.45536,0.69498 -1.27302,0.7423 -1.84801,0.10621 z m 295.59734,-0.49383 c -0.1502,-0.15005 -0.27314,-0.53945 -0.27314,-0.86491 0,-0.76286 0.38762,-1.13801 1.1756,-1.13801 0.62987,0 1.10051,0.52188 1.10051,1.22056 0,0.84877 -1.39265,1.39264 -2.00299,0.78236 z m -293.42885,-4.27903 c -0.25037,-0.24982 -0.45521,-0.60884 -0.45521,-0.79661 0,-0.44115 0.81067,-1.25182 1.25184,-1.25182 0.44115,0 1.25182,0.81067 1.25182,1.25182 0,0.44119 -0.81067,1.25186 -1.25182,1.25186 -0.1878,0 -0.54626,-0.20523 -0.79663,-0.45525 z m -58.12386,-0.41197 c -0.3878,-0.16592 -0.36744,-0.21997 0.22762,-0.6003 2.93133,-1.87559 6.36296,-5.58365 10.7311,-11.59559 1.44568,-1.98973 3.18178,-4.24297 3.85799,-5.00734 2.69328,-3.04415 5.67055,-5.10856 8.57928,-5.94879 1.58775,-0.45861 4.10296,-0.37077 5.42169,0.18935 l 0.85151,0.3617 -0.69924,2.00399 c -2.29985,6.59119 -6.37849,12.59882 -10.87003,16.01106 -2.01611,1.53165 -5.56817,3.25319 -8.22838,3.98796 -1.80573,0.49883 -2.76273,0.61233 -5.80395,0.68863 -2.00292,0.0507 -3.83333,0.008 -4.06757,-0.0907 z m 349.3179,-0.39375 c -0.30342,-0.4631 -0.3281,-0.6898 -0.1239,-1.13798 0.47726,-1.04745 2.3132,-0.64422 2.3132,0.50801 0,0.45158 -0.85199,1.20835 -1.36039,1.20835 -0.24749,0 -0.62049,-0.26041 -0.82894,-0.57838 z m -288.91798,-3.97398 c -0.25038,-0.24983 -0.45521,-0.60881 -0.45521,-0.79661 0,-0.44119 0.81066,-1.25182 1.25183,-1.25182 0.44115,0 1.25183,0.81063 1.25183,1.25182 0,0.44114 -0.81068,1.25181 -1.25183,1.25181 -0.1878,0 -0.54625,-0.20485 -0.79662,-0.4552 z m 286.70432,-0.64384 c -0.4555,-0.50325 -0.4777,-0.95195 -0.0748,-1.50335 0.31295,-0.42799 1.41312,-0.56364 1.7376,-0.2143 0.46789,0.50377 0.47641,1.2107 0.0208,1.667 -0.57791,0.57789 -1.18954,0.59626 -1.6834,0.051 z m 27.62233,-0.6319 c -0.68647,-0.18444 -1.99438,-0.73792 -2.9064,-1.22986 -3.06909,-1.65547 -4.97959,-3.3281 -9.44855,-8.2721 -4.74268,-5.2467 -8.07698,-8.1922 -11.10528,-9.81022 -0.77129,-0.41197 -1.31428,-0.79986 -1.20666,-0.86173 1.32176,-0.75988 8.35724,-0.97984 11.23458,-0.3515 8.39999,1.83493 14.92569,7.44276 19.73874,16.96222 1.25501,2.48198 1.28038,2.56823 0.84898,2.88484 -1.37553,1.00977 -4.73597,1.32816 -7.15541,0.67804 z m -311.94303,-3.51088 c -0.59937,-0.66229 -0.22927,-1.67199 0.6501,-1.77347 0.82425,-0.0952 1.29078,0.30841 1.29078,1.11742 0,1.07248 -1.19767,1.4773 -1.94088,0.65605 z m 281.76079,-0.7897 c -0.34538,-0.52709 -0.34538,-0.61096 0,-1.13801 0.62953,-0.96087 2.1832,-0.55597 2.1832,0.56901 0,1.12493 -1.55367,1.52987 -2.1832,0.569 z m 37.59279,-2.90199 c -0.18429,-0.28158 -0.84932,-1.71118 -1.47789,-3.17673 -3.2444,-7.5645 -3.95961,-14.39082 -2.15869,-20.60527 0.73912,-2.5505 1.66078,-4.52406 3.17704,-6.80281 1.2557,-1.88723 4.37665,-5.26171 5.34649,-5.78071 0.48061,-0.25739 0.49807,-0.23811 0.3425,0.37935 -0.85827,3.40638 -0.51804,9.14536 1.0439,17.60701 0.76312,4.13408 0.76656,9.8477 0.008,12.29072 -0.87435,2.81344 -2.2085,4.74122 -4.12305,5.95763 -1.22249,0.77673 -1.71558,0.80662 -2.15765,0.13077 z m -316.54959,-0.68278 c -0.62606,-0.49213 -0.70761,-1.23669 -0.19192,-1.7523 0.25678,-0.25663 0.62048,-0.46688 0.80825,-0.46688 0.44117,0 1.25183,0.81067 1.25183,1.25181 0,0.42048 -0.80253,1.25182 -1.20833,1.25182 -0.16384,0 -0.46077,-0.12775 -0.65982,-0.28422 z m 276.49032,-0.75601 c -0.42445,-0.42448 -0.46755,-1.26229 -0.0843,-1.64523 0.1502,-0.15005 0.53946,-0.27288 0.86489,-0.27288 0.76286,0 1.13801,0.38747 1.13801,1.1755 0,0.98858 -1.20571,1.4555 -1.91834,0.74287 z m -290.36358,-1.64244 c -6.33877,-6.71947 -8.19144,-16.07999 -5.055,-25.54015 1.37984,-4.16187 4.54315,-10.24218 5.3285,-10.24218 0.49631,0 2.00611,1.10381 2.79968,2.04695 1.6857,2.00338 2.4848,4.70963 2.48702,8.42283 0.002,3.0031 -0.37504,5.27554 -1.6693,10.06636 -1.8131,6.71134 -2.65717,12.09256 -2.37496,15.14097 0.084,0.90758 0.10523,1.65014 0.0472,1.65014 -0.0581,0 -0.76149,-0.69524 -1.56307,-1.54492 z m 16.59728,-2.15368 c -0.68906,-0.53103 -0.59871,-1.68348 0.15904,-2.02874 1.26673,-0.57713 2.3435,1.16538 1.21051,1.95893 -0.61205,0.42867 -0.88576,0.44266 -1.36955,0.0695 z m 271.07572,-0.64415 c -0.45756,-0.26608 -0.53464,-1.3477 -0.12525,-1.7571 0.15027,-0.15005 0.53945,-0.27288 0.86497,-0.27288 0.76277,0 1.13801,0.38747 1.13801,1.17554 0,0.92557 -0.98584,1.37424 -1.87773,0.85471 z m -268.38744,-3.98109 c -0.736,-0.73602 -0.1781,-1.91841 0.90518,-1.91841 0.33286,0 0.69368,0.22337 0.92033,0.56897 0.34538,0.52713 0.34538,0.611 0,1.13805 -0.42867,0.65424 -1.28363,0.75319 -1.82551,0.21166 z m 265.53531,-0.45241 c -1.07831,-0.75534 -0.20545,-2.45011 1.03814,-2.01554 0.46255,0.16176 0.634,0.38781 0.6783,0.89506 0.0329,0.37342 -0.0189,0.79291 -0.1138,0.93249 -0.31491,0.46186 -1.08296,0.55196 -1.60263,0.18784 z m -262.41569,-3.79899 c -0.75381,-0.97417 -0.2394,-2.06079 0.92188,-1.9474 0.95667,0.0937 1.35944,1.07233 0.72818,1.76988 -0.46891,0.51813 -1.316,0.60929 -1.65006,0.17763 z m 259.44476,-0.5339 c -0.75253,-0.52716 -0.6112,-1.7097 0.2397,-2.00715 1.24417,-0.43476 2.11637,1.26028 1.03746,2.01604 -0.62437,0.43729 -0.6402,0.43721 -1.2772,-0.008 z m -256.44746,-4.0617 c -0.3541,-0.54047 -0.35471,-0.6234 -0.009,-1.1514 0.75253,-1.14852 2.50126,-0.31786 2.04989,0.97425 -0.31174,0.89189 -1.50494,0.99545 -2.04113,0.17726 z m -59.16524,-0.004 c -2.02207,-0.31899 -4.62207,-1.00607 -4.78147,-1.26399 -0.0568,-0.0922 0.49268,-0.38438 1.22097,-0.64985 2.74859,-1.00214 7.38467,-4.49019 13.34753,-10.04232 3.23531,-3.01247 6.61047,-5.34727 9.24522,-6.39545 1.7654,-0.70231 2.10237,-0.7595 4.52491,-0.7677 2.41049,-0.008 2.71921,0.0423 3.90419,0.62317 0.7077,0.34734 1.33929,0.76898 1.40353,0.93642 0.14927,0.38899 -2.47666,4.56854 -4.38264,6.97568 -6.42712,8.11691 -15.43346,12.01051 -24.48224,10.58404 z m 312.33149,-0.14136 c -0.45748,-0.26645 -0.53456,-1.34762 -0.12515,-1.75706 0.1502,-0.15005 0.53947,-0.27326 0.86489,-0.27326 0.72579,0 1.13802,0.38169 1.13802,1.05351 0,0.98554 -0.98386,1.49733 -1.87773,0.9767 z m 29.07657,-0.88108 c -3.23751,-0.85172 -5.92706,-2.33722 -10.65529,-5.88529 -6.25034,-4.69032 -9.79264,-6.82847 -13.21356,-7.97579 l -2.01864,-0.67702 0.65301,-0.33525 c 1.22516,-0.62819 4.97374,-1.71292 6.87995,-1.99083 2.62666,-0.38282 6.91238,-0.16629 9.36415,0.47271 4.76402,1.24222 9.01438,3.78395 13.08203,7.82309 2.61978,2.60141 5.35406,5.97903 5.35406,6.61376 0,0.47123 -1.86337,1.64258 -3.28475,2.06483 -1.51127,0.44893 -4.21819,0.4001 -6.16096,-0.11074 z m -278.94172,-2.99097 c -0.57461,-1.07369 0.57848,-2.26798 1.58291,-1.63956 0.45599,0.28535 0.59816,1.35413 0.23785,1.78832 -0.41685,0.50226 -1.52062,0.41193 -1.82077,-0.14854 z M 21.3227,197.93064 c -0.54393,-0.6011 -0.46384,-1.33701 0.19237,-1.76697 0.52717,-0.34544 0.61095,-0.34544 1.13802,0 1.03736,0.67971 0.60174,2.18317 -0.63253,2.18317 -0.17658,0 -0.4906,-0.18708 -0.69784,-0.4162 z m -260.38433,-2.70289 c -3.63674,-5.60481 -4.79606,-12.70787 -3.13268,-19.19373 1.29776,-5.06025 4.39403,-10.46052 8.59894,-14.99769 l 1.35513,-1.46219 0.91216,0.82409 c 2.43445,2.19938 3.38089,6.33933 2.46403,10.77804 -0.54689,2.64771 -1.54448,5.24519 -3.96633,10.32733 -3.13988,6.58889 -4.15539,9.36613 -4.78184,13.07759 l -0.38581,2.28574 z m 17.62553,-0.73304 c -0.59302,-0.59305 -0.60241,-1.19539 -0.0268,-1.71636 0.5403,-0.48896 1.47843,-0.3239 1.82349,0.32088 0.25511,0.47668 -0.0434,1.60551 -0.42443,1.60551 -0.11804,0 -0.3687,0.0593 -0.55705,0.13115 -0.18833,0.0722 -0.55519,-0.0813 -0.81524,-0.34129 z m 239.251419,-0.50808 c -0.3846,-0.38438 -0.3583,-1.44012 0.0439,-1.77415 0.18021,-0.14929 0.61361,-0.23887 0.96313,-0.19842 0.756321,0.0869 1.242521,1.0922 0.839851,1.73552 -0.29677,0.4741 -1.460861,0.62358 -1.847201,0.23735 z m 43.841411,-1.38724 c -2.58665,-3.2479 -5.16325,-7.94294 -6.34711,-11.56577 -1.96006,-5.99811 -1.8016,-12.01965 0.46109,-17.51641 1.07994,-2.62344 3.90747,-7.05328 4.49949,-7.04904 0.0909,7.1e-4 0.18467,0.84563 0.20829,1.87774 0.0774,3.37565 1.24537,7.59651 4.58535,16.56544 2.49942,6.71199 2.76911,12.10126 0.78763,15.74177 -0.59262,1.08888 -2.55982,3.14121 -3.01093,3.14121 -0.12768,0 -0.66032,-0.53779 -1.18378,-1.19494 z m -279.65083,-2.0372 c -0.61033,-0.61032 -0.0664,-2.00293 0.78233,-2.00293 0.69868,0 1.2206,0.47056 1.2206,1.10049 0,0.78799 -0.37523,1.17558 -1.13803,1.17558 -0.32549,0 -0.71467,-0.12245 -0.8649,-0.27288 z m 232.241997,-0.53976 c -0.71262,-0.71259 -0.2457,-1.91837 0.74291,-1.91837 0.787981,0 1.175521,0.37531 1.175521,1.13805 0,0.32542 -0.12295,0.71467 -0.27315,0.86487 -0.38295,0.38325 -1.220771,0.34016 -1.645301,-0.0847 z m -228.418217,-3.28399 c -0.2504,-0.25021 -0.45522,-0.60884 -0.45522,-0.79657 0,-0.42048 0.80255,-1.2519 1.20834,-1.2519 0.57777,0 1.12462,0.60873 1.12462,1.2519 0,0.64308 -0.54685,1.25178 -1.12462,1.25178 -0.16385,0 -0.50276,-0.20485 -0.75312,-0.45521 z m 224.911956,-0.36359 c -0.7525307,-0.52713 -0.61128,-1.70971 0.2397,-2.00708 1.244161,-0.43484 2.116361,1.26032 1.03737,2.01604 -0.62428,0.43729 -0.6402,0.43717 -1.27712,-0.008 z m -220.992016,-3.17749 c -1.07899,-0.75579 -0.20678,-2.45087 1.03737,-2.01607 0.85103,0.29707 0.9923,1.47998 0.23977,2.00704 -0.63695,0.44621 -0.65281,0.44629 -1.27713,0.008 z M 6.6626356,182.60598 c -0.45868,-0.45868 -0.3459,-1.50852 0.19302,-1.79698 1.0736703,-0.5746 2.26794,0.5785 1.6395403,1.58294 -0.28475,0.4551 -1.4548503,0.59169 -1.8325803,0.21393 z M -206.55917,179.35203 c -0.67746,-1.03385 0.21029,-2.01146 1.465,-1.61325 1.07199,0.34054 0.61581,2.17119 -0.54095,2.17119 -0.34163,0 -0.70048,-0.21695 -0.92405,-0.55794 z M 2.6101256,178.89686 c -0.67744,-1.03385 0.21037,-2.0115 1.46508,-1.61325 1.07195,0.34054 0.61576,2.17119 -0.541,2.17119 -0.34163,0 -0.7005,-0.21657 -0.92408,-0.55794 z M 34.03336,177.0582 c -2.27499,-0.50385 -5.03232,-1.57852 -9.218,-3.59271 -6.879261,-3.31026 -12.153743,-5.16332 -14.696354,-5.16332 -0.5398907,0 -1.0409804,-0.0964 -1.1135004,-0.21354 -0.28622,-0.46311 3.5829014,-2.63498 6.6686724,-3.7434 3.421871,-1.22914 8.385372,-1.62161 12.100072,-0.95667 3.9596,0.70881 8.55793,2.73547 12.33138,5.43496 2.73978,1.95995 5.64938,4.52398 5.64938,4.97835 0,0.90985 -2.96611,2.88616 -5.05478,3.36794 -1.35634,0.31294 -5.02751,0.25096 -6.66687,-0.11187 z m -236.48824,-1.02433 c -0.63411,-0.70068 -0.22844,-1.67648 0.73605,-1.77037 0.56652,-0.0552 0.80361,0.0548 1.10319,0.51209 0.35411,0.5404 0.35471,0.62332 0.009,1.15136 -0.45537,0.69505 -1.27302,0.7423 -1.84801,0.10658 z m -18.30668,-0.39133 c -1.66811,-3.58363 -2.49396,-8.68445 -2.04982,-12.66085 0.67875,-6.0771 3.4494,-11.52023 8.41346,-16.52889 2.02847,-2.04666 6.16934,-5.46323 6.62147,-5.46323 0.36049,0 1.53405,1.81761 1.95779,3.03223 0.68608,1.96653 0.54337,5.00501 -0.36004,7.66526 -1.02275,3.01172 -2.29394,5.16454 -6.03442,10.21962 -4.6178,6.24064 -7.37687,11.02443 -7.79089,13.50822 -0.16924,1.01518 -0.36381,1.07361 -0.75758,0.22753 z m 219.2675664,-0.17121 c -0.34537,-0.52706 -0.34537,-0.61089 0,-1.13798 0.4286597,-0.65427 1.28356938,-0.75326 1.82551919,-0.21128 0.4752,0.4752 0.45222,1.07944 -0.0585,1.54171 -0.6011398,0.54399 -1.33706949,0.46382 -1.76701919,-0.192 z M -263.2193,174.41499 c -1.12665,-0.0816 -2.90179,-0.36851 -3.94477,-0.63663 -1.92824,-0.49598 -5.44544,-1.90597 -6.37027,-2.55375 -0.49464,-0.3462 -0.46821,-0.36472 0.9198,-0.63594 3.2026,-0.62589 7.89596,-2.8453 13.89844,-6.5726 4.10715,-2.55027 6.36558,-3.7014 9.10695,-4.6419 1.88219,-0.6457 2.37164,-0.7197 4.82589,-0.72983 3.18224,-0.0113 4.62867,0.42214 6.28329,1.89037 l 0.97205,0.86264 -0.48542,0.68171 c -1.01873,1.43071 -6.24706,6.22523 -8.24787,7.56356 -5.61308,3.75447 -10.81624,5.21877 -16.95809,4.77237 z m 65.1544,-1.38977 c -0.68905,-0.53103 -0.5987,-1.68344 0.15904,-2.02866 1.26674,-0.57718 2.34351,1.1653 1.21052,1.95885 -0.61206,0.42871 -0.88577,0.4427 -1.36956,0.0699 z m 192.5301779,-0.58689 c -0.5439297,-0.60109 -0.4638397,-1.33704 0.19238,-1.767 0.5270697,-0.34545 0.6108597,-0.34545 1.1380194,0 1.0373597,0.67978 0.60173,2.18317 -0.6326197,2.18317 -0.1765797,0 -0.4905997,-0.18709 -0.6977497,-0.41617 z M -194.05429,169.54495 c -0.58101,-0.88675 -0.13319,-1.69768 0.93747,-1.69768 0.63568,0 0.86036,0.11829 1.06139,0.55963 0.34102,0.74835 -0.25762,1.71636 -1.06139,1.71636 -0.34696,0 -0.70203,-0.21884 -0.93747,-0.57831 z m 184.1760497,-0.23508 c -0.7360197,-0.73592 -0.1780897,-1.91834 0.9051397,-1.91834 0.33294,0 0.6936997,0.22337 0.9203697,0.56901 0.3453797,0.52713 0.3453797,0.61092 0,1.13801 -0.42866,0.65424 -1.2836494,0.75323 -1.8255094,0.21166 z M 41.72056,166.36441 c -6.04853,-5.64401 -9.48381,-11.69122 -10.47154,-18.43318 -0.64518,-4.4036 0.15186,-9.27575 2.25951,-13.81198 0.5127,-1.10366 0.99934,-2.00658 1.08132,-2.00658 0.0817,0 0.27923,0.64013 0.43838,1.42257 0.64011,3.14642 2.81402,7.71538 6.47074,13.59942 2.6547,4.27159 4.08596,7.14478 4.81846,9.67245 1.07565,3.71165 0.99401,6.56795 -0.26018,9.10496 -0.59916,1.21213 -1.5881,2.38991 -2.00669,2.38991 -0.13951,0 -1.18808,-0.8719 -2.33005,-1.93757 z m -231.13645,0.51503 c -0.70228,-0.5413 -0.59587,-1.70105 0.18323,-1.99725 1.19178,-0.45317 2.18484,0.90482 1.34244,1.83568 -0.46432,0.51307 -0.99645,0.56934 -1.5257,0.16176 z m 175.25382,-0.41665 c -0.45756,-0.26608 -0.53464,-1.34775 -0.12525,-1.75714 0.15027,-0.15005 0.53946,-0.27289 0.86497,-0.27289 0.7522,0 1.13802,0.38586 1.13802,1.13802 0,1.02588 -0.90781,1.45716 -1.87773,0.8922 z m -171.09436,-2.69813 c -0.34057,-0.63636 -0.29162,-1.0317 0.18059,-1.45909 0.60106,-0.54395 1.337,-0.46382 1.76694,0.192 0.34538,0.52709 0.34538,0.61092 0,1.13805 -0.46695,0.71263 -1.59514,0.78724 -1.94756,0.12851 z m 166.59916,-0.24265 c -0.25043,-0.24983 -0.45523,-0.60884 -0.45523,-0.79657 0,-0.42044 0.80252,-1.25189 1.20829,-1.25189 0.57783,0 1.12469,0.60876 1.12469,1.25189 0,0.64312 -0.54686,1.25178 -1.12469,1.25178 -0.16376,0 -0.50272,-0.20485 -0.75306,-0.45521 z m -162.04705,-2.48848 c -0.34057,-0.63636 -0.29163,-1.03173 0.18063,-1.45912 0.97975,-0.88672 2.44115,0.14513 1.89698,1.33969 -0.33071,0.72578 -1.71062,0.80515 -2.0776,0.11943 z m 157.37483,-0.24907 c -0.59933,-0.66228 -0.22915,-1.67202 0.65017,-1.77347 0.8242,-0.0956 1.29079,0.30841 1.29079,1.11742 0,1.0724 -1.19771,1.47727 -1.94096,0.65605 z m -152.58205,-2.13006 c -0.36843,-0.44391 -0.23305,-1.51129 0.22824,-1.79993 0.59781,-0.37379 1.54572,-8.3e-4 1.71541,0.67518 0.0829,0.32995 0.0485,0.76418 -0.0764,0.96385 -0.30486,0.48722 -1.51021,0.59108 -1.86724,0.16101 z m -24.46547,-1.90315 c -0.46372,-2.52657 -0.46838,-6.74294 -0.0106,-9.15862 0.66895,-3.52649 2.29094,-7.21334 4.41555,-10.03665 1.62132,-2.1546 5.27046,-5.5652 7.64153,-7.14199 2.28863,-1.52205 6.85526,-3.97761 7.41244,-3.98581 0.80115,-0.0113 1.68042,3.11981 1.48206,5.27845 -0.39429,4.29063 -2.97631,8.20929 -9.05267,13.73892 -5.95941,5.42321 -9.02117,8.83162 -10.55449,11.74953 -0.44731,0.85127 -0.84829,1.54772 -0.89105,1.54772 -0.0427,0 -0.24227,-0.8962 -0.44326,-1.99155 z m 172.55861,1.74573 c -0.56638,-0.32958 -0.51623,-1.46661 0.0834,-1.88648 1.05929,-0.74196 2.32815,0.71021 1.4593,1.67021 -0.45842,0.50657 -0.93043,0.57275 -1.54249,0.21619 z m 36.9165556,-2.01789 c -1.0708297,-0.22602 -3.01687,-0.79457 -4.32452,-1.26338 -10.2351477,-3.67023 -13.9695362,-4.68794 -17.4213356,-4.74754 -1.05079,-0.0151 -1.91103,-0.0975 -1.91163,-0.17651 0,-0.44594 4.38637,-3.35985 6.5170091,-4.32597 6.3792873,-2.89255 13.2722265,-2.85872 20.5575279,0.10054 4.017321,1.63196 10.251663,5.60625 10.251663,6.53537 0,0.60362 -1.98251,2.50926 -3.27752,3.15057 -0.597521,0.29594 -1.615191,0.67877 -2.261571,0.85081 -1.653131,0.4402 -5.751063,0.3772 -8.1296234,-0.12434 z M -171.17049,156.22133 c -0.26011,-0.26004 -0.41368,-0.62691 -0.34141,-0.81525 0.0723,-0.18822 0.13138,-0.43907 0.13138,-0.55703 0,-0.38131 1.1288,-0.67955 1.60545,-0.42444 0.64476,0.34507 0.80985,1.28319 0.32088,1.82347 -0.52095,0.57566 -1.12332,0.56625 -1.71634,-0.0227 z m 138.4574,-0.24492 c -0.45868,-0.45872 -0.34594,-1.50852 0.19302,-1.79694 1.07367,-0.5746 2.26794,0.57846 1.63954,1.58291 -0.28475,0.45509 -1.45484,0.59168 -1.83257,0.21392 z m -133.61456,-1.83107 c -0.15024,-0.15004 -0.27315,-0.53941 -0.27315,-0.86486 0,-0.76283 0.38758,-1.13802 1.17554,-1.13802 0.62994,0 1.10051,0.52184 1.10051,1.2206 0,0.84873 -1.39259,1.39264 -2.00291,0.78228 z m 128.95213,-0.23886 c -0.70227,-0.54123 -0.59586,-1.70098 0.18327,-1.99722 1.19176,-0.45309 2.18483,0.90482 1.34242,1.83568 -0.46432,0.51311 -0.99646,0.56939 -1.52569,0.16177 z m -124.11039,-1.99843 c -0.59937,-0.66228 -0.22922,-1.67202 0.65012,-1.77354 0.81237,-0.0937 1.29077,0.30652 1.29077,1.07989 0,1.15804 -1.149,1.56865 -1.94089,0.69365 z m 119.07911,-0.18141 c -0.54395,-0.6011 -0.46386,-1.33697 0.19234,-1.76693 0.52712,-0.34545 0.61092,-0.34545 1.13804,0 1.03737,0.67971 0.60173,2.1832 -0.63259,2.1832 -0.17658,0 -0.49061,-0.18708 -0.69777,-0.4162 z m -195.3014,-1.42935 c -4.26716,-0.62233 -10.46765,-3.44927 -12.63416,-5.76007 l -0.55179,-0.58859 h 1.76786 c 3.30166,0 7.64442,-1.13896 15.15429,-3.97447 4.46747,-1.68673 6.66198,-2.29436 9.52796,-2.638 4.1517,-0.4978 7.91862,0.57528 10.01925,2.85422 1.462,1.58608 1.46905,1.57395 -2.45622,4.23364 -6.99275,4.73813 -14.36188,6.8163 -20.82719,5.87331 z m 81.4003,-0.10242 c -0.88444,-0.61947 -0.448,-2.1493 0.61316,-2.1493 0.53213,0 1.15704,0.70953 1.15704,1.31372 0,0.41114 -0.74472,1.18995 -1.13802,1.18995 -0.0695,0 -0.354,-0.15988 -0.63218,-0.35452 z m 108.97231,-0.32844 c -0.25039,-0.24983 -0.45521,-0.60885 -0.45521,-0.79658 0,-0.44118 0.81066,-1.25189 1.25182,-1.25189 0.44118,0 1.25184,0.81071 1.25184,1.25189 0,0.44111 -0.81066,1.25178 -1.25184,1.25178 -0.1878,0 -0.54625,-0.20485 -0.79661,-0.4552 z m -104.11318,-1.49571 c -0.42449,-0.42444 -0.46753,-1.26229 -0.0845,-1.64523 0.15023,-0.15005 0.53943,-0.27288 0.8649,-0.27288 0.76281,0 1.13803,0.38744 1.13803,1.17547 0,0.98865 -1.20577,1.45549 -1.91839,0.7429 z m 99.02733,-0.28611 c -0.47308,-0.52271 -0.47963,-1.04156 -0.0189,-1.50214 0.54189,-0.54187 1.39684,-0.44292 1.82553,0.21128 0.34537,0.52713 0.34537,0.61096 0,1.13809 -0.44328,0.6765 -1.26931,0.74634 -1.80651,0.15231 z m -94.02001,-1.30708 c -0.7216,-0.72158 -0.18202,-1.91833 0.86491,-1.91833 0.67183,0 1.05348,0.41234 1.05348,1.13801 0,0.32542 -0.12291,0.71467 -0.27315,0.86487 -0.38303,0.38321 -1.22077,0.34016 -1.64526,-0.0847 z m 165.339039,-0.59535 c -6.801153,-5.13721 -11.2092034,-11.0742 -12.9001734,-17.37464 -0.53146,-1.9799 -0.61155,-2.72247 -0.62591,-5.79858 -0.0121,-2.5231 0.0923,-4.01409 0.3654,-5.23495 0.43545,-1.94733 1.74216,-5.6901 1.98656,-5.6901 0.0897,0 0.2949903,0.51477 0.4562703,1.14399 0.7391997,2.88406 3.4445801,7.41401 8.0632121,13.50087 1.547661,2.03973 3.248012,4.45164 3.778352,5.3599 3.28457,5.62378 3.81078,10.6645 1.48177,14.19295 -0.30985,0.46942 -0.74119,0.85187 -0.95849,0.84983 -0.21728,-0.002 -0.9584,-0.4292 -1.646931,-0.94927 z m -76.429909,0.45226 c -0.67621,-0.67627 -0.0473,-2.00292 0.94943,-2.00292 0.67185,0 1.0535,0.41242 1.0535,1.13798 0,0.7522 -0.38584,1.13805 -1.13802,1.13805 -0.3255,0 -0.71469,-0.12284 -0.86491,-0.27288 z m -83.75875,-1.13813 c -0.37598,-0.37606 -0.34322,-1.43372 0.0545,-1.7639 1.03689,-0.86056 2.51309,0.58061 1.61323,1.57493 -0.46669,0.51571 -1.25204,0.60472 -1.66775,0.18897 z m 78.57117,-0.52346 c -0.34537,-0.52717 -0.34537,-0.61089 0,-1.13809 0.44328,-0.6765 1.26931,-0.74631 1.80651,-0.1527 0.47307,0.52275 0.47962,1.04157 0.0189,1.50214 -0.54188,0.54191 -1.39683,0.44292 -1.82554,-0.21128 z m -73.38176,-0.79658 c -0.2504,-0.24982 -0.4552,-0.60888 -0.4552,-0.79664 0,-0.44111 0.81066,-1.25182 1.25183,-1.25182 0.44115,0 1.25182,0.81071 1.25182,1.25182 0,0.44118 -0.81067,1.25185 -1.25182,1.25185 -0.18781,0 -0.54626,-0.20523 -0.79663,-0.45521 z m 68.45228,-0.0151 c -0.45753,-0.26607 -0.53458,-1.3477 -0.12514,-1.7571 0.15023,-0.15005 0.53942,-0.27288 0.8649,-0.27288 0.72574,0 1.13803,0.38166 1.13803,1.05347 0,0.98562 -0.98387,1.49741 -1.87775,0.9767 z m -109.34336,-2.82723 c 0.12809,-3.7002 0.83523,-6.5763 2.40479,-9.78172 3.48325,-7.11356 9.94546,-11.91421 19.90501,-14.78691 1.10935,-0.32013 2.20559,-0.58182 2.43606,-0.58182 0.90698,0 1.21054,3.71187 0.4771,5.83396 -1.372,3.96964 -4.74014,7.32065 -11.25974,11.20245 -7.42872,4.42314 -11.22086,7.33168 -13.54648,10.39007 l -0.51922,0.68285 z m 46.02847,1.80457 c -0.71262,-0.71263 -0.24571,-1.91837 0.74284,-1.91837 0.78797,0 1.17554,0.37493 1.17554,1.13801 0,0.32542 -0.12291,0.71467 -0.27315,0.86487 -0.38302,0.38321 -1.22076,0.34016 -1.64526,-0.0847 z m 57.95478,-0.14324 c -0.61031,-0.61036 -0.0664,-2.00296 0.78233,-2.00296 0.69868,0 1.2206,0.47059 1.2206,1.10052 0,0.78799 -0.37523,1.17555 -1.13803,1.17555 -0.32549,0 -0.71468,-0.12284 -0.8649,-0.27326 z m -52.71986,-0.76849 c -0.71261,-0.71263 -0.24571,-1.91842 0.74285,-1.91842 0.78796,0 1.17553,0.37531 1.17553,1.13802 0,0.32542 -0.12291,0.71471 -0.27315,0.86494 -0.38302,0.38321 -1.22076,0.34016 -1.64526,-0.0847 z m 47.70467,-0.004 c -0.70109,-0.49112 -0.58525,-1.44167 0.2313,-1.89786 0.55703,-0.31105 0.65148,-0.30425 1.08113,0.085 0.58211,0.52683 0.60557,1.30096 0.0545,1.79966 -0.51765,0.46848 -0.71435,0.47037 -1.36697,0.0113 z m -42.46975,-0.67711 c -0.71261,-0.71266 -0.24571,-1.91841 0.74286,-1.91841 0.78796,0 1.17553,0.37493 1.17553,1.13802 0,0.32541 -0.12291,0.71467 -0.27315,0.8649 -0.38302,0.38325 -1.22077,0.34016 -1.64526,-0.0847 z m 37.11866,-0.0586 c -0.5103,-0.56386 -0.47383,-1.24614 0.0941,-1.76008 0.42981,-0.38903 0.52388,-0.39633 1.08112,-0.0847 0.73881,0.41321 0.90277,1.23106 0.36579,1.82449 -0.49698,0.54912 -1.05568,0.55642 -1.54097,0.0189 z m -31.78618,-0.49417 c -0.25039,-0.24983 -0.45521,-0.60888 -0.45521,-0.79665 0,-0.44115 0.81067,-1.25182 1.25183,-1.25182 0.44117,0 1.25183,0.81067 1.25183,1.25182 0,0.44119 -0.81066,1.25182 -1.25183,1.25182 -0.18781,0 -0.54625,-0.20485 -0.79662,-0.45517 z m 26.41359,-0.0998 c -0.86055,-1.03691 0.5806,-2.51308 1.57491,-1.61325 0.51571,0.46673 0.60471,1.25208 0.18898,1.66779 -0.37595,0.37606 -1.43376,0.34318 -1.76389,-0.0544 z m 69.97729,-0.0393 c -1.00149,-0.17953 -3.51082,-0.78055 -5.57634,-1.33538 -6.82266,-1.83258 -11.28571,-2.53599 -14.68059,-2.31372 l -2.04844,0.13418 1.56025,-1.49356 c 2.87875,-2.75569 6.78943,-4.94475 10.73045,-6.00661 2.64189,-0.7118 7.26663,-0.86646 10.37993,-0.34696 4.05896,0.67706 8.035,2.15282 12.2871682,4.56045 2.7960288,1.58313 2.8935888,1.69871 2.2767091,2.69684 -1.1719894,1.89631 -3.6076785,3.51357 -6.2188573,4.12918 -1.80917,0.42659 -6.26617,0.41408 -8.71028,-0.0227 z m -91.09275,-0.14476 c -0.7165,-0.92598 -0.2606,-1.99154 0.85212,-1.99154 0.6634,0 1.13312,0.50593 1.13312,1.2206 0,0.84627 -1.48173,1.4217 -1.98524,0.77094 z m 15.768244,-0.22148 c -0.447456,-0.63881 -0.446676,-0.96249 0.003,-1.41252 0.571286,-0.57127 1.654182,-0.45944 1.955538,0.20221 0.57718,1.2667 -1.165312,2.34349 -1.958898,1.21047 z m -10.540744,0.0151 c -0.45867,-0.45868 -0.34594,-1.50856 0.19303,-1.79697 1.07366,-0.5746 2.26796,0.57853 1.63951,1.58294 -0.28475,0.45509 -1.45484,0.59168 -1.83253,0.2143 z m 5.167796,-0.21354 c -0.574606,-1.07365 0.578456,-2.2679 1.582892,-1.63944 0.455986,0.28535 0.598156,1.35409 0.237886,1.78828 -0.416846,0.50222 -1.520592,0.41193 -1.820748,-0.14854 z m -47.330596,-7.68911 c 0,-7.62013 3.6716,-14.70599 10.12845,-19.54709 3.1783,-2.38293 10.72084,-5.65681 14.09938,-6.11992 l 0.99931,-0.13757 0.24483,0.88195 c 0.94344,3.39778 -0.57994,7.35947 -4.18502,10.88362 -1.95306,1.90919 -3.73598,3.17435 -8.42726,5.98019 -5.19649,3.10783 -7.94681,5.1261 -10.52676,7.72483 l -2.33296,2.34992 z m -60.77064,-1.7557 c -6.02725,-1.10551 -11.22369,-3.93547 -14.79385,-8.05655 -1.31179,-1.51423 -1.44999,-1.93471 -0.51262,-1.55982 0.98205,0.39296 6.09636,0.50725 9.07366,0.20296 1.48771,-0.15155 4.80458,-0.63518 7.37082,-1.07368 9.06,-1.5481 14.41172,-0.90335 17.78314,2.14257 0.87648,0.79185 2.23941,2.84553 2.24402,3.38124 0.003,0.29594 -4.18275,2.30041 -6.59843,3.15988 -3.78235,1.34566 -5.98948,1.74417 -10.12844,1.82872 -2.12811,0.0435 -4.12535,0.034 -4.4383,-0.0227 z m 140.32099,-0.10898 c 3.70291,-6.27292 10.14847,-10.62176 17.35228,-11.70758 5.5913,-0.84283 12.45759,0.15761 18.77777,2.73547 0.5454,0.22224 0.50608,0.50824 -0.2886,2.09862 -1.69992,3.40169 -5.55131,5.42132 -11.37617,5.96546 -1.77117,0.16554 -3.92184,0.1319 -8.30759,-0.12813 -7.80673,-0.4639 -13.00998,-0.0809 -15.91281,1.17169 -0.34144,0.14703 -0.39441,0.11792 -0.24484,-0.13493 z m 57.3809297,-2.03724 C -17.49508,123.64471 -22.03611,117.50445 -23.5319,110.22176 c -0.41117,-2.00221 -0.4752,-6.36416 -0.12609,-8.60176 0.30951,-1.983886 1.12047,-4.660627 1.33639,-4.411287 0.0956,0.11036 0.39354,0.74657 0.66221,1.4138 1.08632,2.698227 4.47446,7.241387 9.02522,12.101737 5.4510788,5.82202 7.6631076,9.57346 8.2020476,13.91054 0.2834297,2.2811 -0.9146097,6.11876 -1.9100794,6.11876 -0.2327797,0 -1.8193091,-0.92497 -3.5256085,-2.05546 z m -110.6410397,0.10923 c 0.24102,-1.72834 1.62476,-5.7117 2.64468,-7.61314 3.07003,-5.72338 8.08367,-9.77616 14.76534,-11.93545 3.770786,-1.2186 7.979942,-1.94227 11.323312,-1.94666 l 1.422532,-0.002 v 1.58473 c 0,2.87371 -1.548012,5.69283 -4.370256,7.9589 -1.875218,1.50565 -6.599228,3.8451 -10.310238,5.10583 -7.29982,2.48006 -12.15872,4.83565 -14.68832,7.12105 l -0.94411,0.85289 z m 26.514194,-0.43367 c 0,-0.35905 1.271482,-3.11595 1.998958,-4.33443 3.737268,-6.25939 9.257558,-10.17953 16.664668,-11.83406 2.56181,-0.57222 8.98859,-0.7067 12.38603,-0.25928 1.49205,0.19654 2.80854,0.45305 2.92553,0.57014 0.28701,0.28725 -0.15621,2.28927 -0.77534,3.50289 -2.17705,4.26742 -7.12669,6.62834 -16.58467,7.91074 -7.33983,0.99526 -12.718366,2.35162 -15.392874,3.88184 -0.672276,0.38475 -1.222302,0.63749 -1.222302,0.56201 z m 56.915976,-11.51198 c -11.14313,-4.24254 -17.67361,-10.9726 -19.64868,-20.248957 -0.51207,-2.40506 -0.67201,-8.23563 -0.2378,-8.66986 0.1641,-0.16403 0.41549,0.0677 0.81826,0.75519 1.44916,2.47279 5.56818,6.22201 11.72336,10.670781 3.91279,2.828086 7.39695,6.100536 8.81502,8.279406 1.45404,2.23405 2.0103,3.99329 2.01606,6.3764 0.008,1.96793 -0.441,3.76737 -0.92867,3.74843 -0.10024,-0.004 -1.25117,-0.41412 -2.55753,-0.91139 z m -135.78122,-0.23849 c -7.999,-0.78062 -14.56605,-4.83551 -18.83435,-11.62944 -0.71981,-1.14574 -1.30874,-2.16304 -1.30874,-2.26063 0,-0.0979 0.63429,0.0805 1.40952,0.39546 3.12609,1.27023 7.06961,1.81777 15.25852,2.11863 6.31326,0.23206 8.76656,0.5701 11.57688,1.59572 3.87147,1.41291 6.2331,3.59726 7.1207,6.58605 l 0.35274,1.18791 -0.73324,0.30652 c -1.27694,0.53361 -6.0912,1.44871 -8.92429,1.69638 -2.99919,0.26192 -3.26763,0.2623 -5.91774,0.004 z m 106.17102,-7.84694 c -5.93097,-0.92139 -10.87505,-2.72654 -15.12891,-5.52381 -2.24986,-1.47947 -5.43885,-4.792467 -6.92364,-7.192847 -1.937696,-3.13255 -3.647464,-8.34229 -3.657004,-11.14292 l -0.003,-0.87802 1.356782,1.25609 c 2.582362,2.39085 6.768602,4.84547 13.096142,7.67909 4.01473,1.79788 5.86361,2.81511 8.07289,4.44144 3.20015,2.355891 5.20146,5.195847 5.68677,8.069927 0.25712,1.52252 0.0755,3.44691 -0.33419,3.5411 -0.12336,0.0302 -1.09803,-0.0843 -2.16584,-0.24983 z m -77.94795,-1.79147 c -5.868,-1.12741 -10.97383,-4.02382 -14.5176,-8.235417 -1.41552,-1.68226 -3.73011,-5.25267 -3.53295,-5.44981 0.0505,-0.0503 0.74752,0.17348 1.54898,0.49678 2.98758,1.20673 7.40713,1.82011 14.58096,2.02364 7.40634,0.20976 10.89259,0.84007 14.1949,2.56501 2.69508,1.407721 4.91069,4.096687 5.17227,6.277307 0.0707,0.5896 -0.017,0.69252 -0.83137,0.97617 -0.50073,0.17462 -2.13948,0.57793 -3.64168,0.89663 -3.38475,0.71826 -10.32405,0.95875 -12.97351,0.44969 z m 38.46532,-2.28183 c -8.49214,-1.36427 -14.48171,-5.030126 -18.58457,-11.374557 -1.263,-1.953 -2.6909,-5.10917 -3.03512,-6.70859 -0.18292,-0.85009 -0.24971,-0.86181 1.39051,0.24303 1.35746,0.91426 3.52199,1.84025 6.72324,2.87622 2.83302,0.91676 3.36087,1.05664 8.72623,2.31303 4.01789,0.94084 6.22317,1.68718 8.64377,2.92543 2.498406,1.27801 4.970714,3.52188 5.896456,5.351577 0.6573,1.29916 1.269616,4.09977 0.963496,4.40678 -0.307536,0.30841 -8.760722,0.28271 -10.724012,-0.034 z"
       style="fill:#000000;fill-opacity:1;stroke-width:3.77952719" />
  </g>
</svg>
